<?xml version="1.0" encoding="UTF-8" standalone="no"?>
<svg
   xmlns:dc="http://purl.org/dc/elements/1.1/"
   xmlns:cc="http://creativecommons.org/ns#"
   xmlns:rdf="http://www.w3.org/1999/02/22-rdf-syntax-ns#"
   xmlns:svg="http://www.w3.org/2000/svg"
   xmlns="http://www.w3.org/2000/svg"
   viewBox="0 0 887.22668 296.92001"
   height="296.92001"
   width="887.22668"
   xml:space="preserve"
   id="svg904"
   version="1.1"><metadata
     id="metadata910"><rdf:RDF><cc:Work
         rdf:about=""><dc:format>image/svg+xml</dc:format><dc:type
           rdf:resource="http://purl.org/dc/dcmitype/StillImage" /><dc:title></dc:title></cc:Work></rdf:RDF></metadata><defs
     id="defs908" /><g
     transform="matrix(1.3333333,0,0,-1.3333333,0,296.92)"
     id="g912"><g
       transform="scale(0.1)"
       id="g914"><path
         id="path916"
         style="fill:#41bb62;fill-opacity:1;fill-rule:nonzero;stroke:none"
         d="M 1027.94,1010.65 C 996.152,935.672 908.508,891.121 813.902,895.32 666.738,901.859 557.68,984.98 517.195,1095.14 502.379,939.922 593.594,805.34 756.352,768.559 932.52,728.809 1101.83,816.82 1150.31,937.59 l -122.37,73.06" /><path
         id="path918"
         style="fill:#292738;fill-opacity:1;fill-rule:nonzero;stroke:none"
         d="m 3692.46,1095.22 c 0,117.94 -53.85,198.68 -147.41,198.68 -89.73,0 -144.88,-80.74 -144.88,-198.68 0,-114.072 55.15,-193.501 144.88,-193.501 93.56,0 147.41,79.429 147.41,193.501 z m 155.09,0 c 0,-185.861 -83.31,-328.13 -266.65,-328.13 -73.04,0 -144.79,37.199 -183.25,98.68 V 521 h -155.09 v 913.24 h 155.09 V 1329.8 c 38.46,64.09 110.21,103.82 183.25,103.82 183.34,0 266.65,-147.41 266.65,-338.4 z m 513.79,10.89 c 0,114.06 -55.15,193.55 -144.84,193.55 -93.56,0 -147.45,-79.49 -147.45,-193.55 0,-117.899 53.89,-198.688 147.45,-198.688 89.69,0 144.84,80.789 144.84,198.688 z m 2.56,328.13 H 4519 V 767.711 H 4363.9 V 871.57 c -38.45,-64.09 -110.25,-103.859 -183.29,-103.859 -183.3,0 -266.65,147.398 -266.65,338.399 0,185.85 83.35,328.13 266.65,328.13 73.04,0 144.84,-37.16 183.29,-98.69 z m 1617.01,-328.13 c 0,114.06 -55.15,193.55 -144.84,193.55 -93.57,0 -147.45,-79.49 -147.45,-193.55 0,-117.899 53.88,-198.688 147.45,-198.688 89.69,0 144.84,80.789 144.84,198.688 z m 157.65,328.13 V 767.711 H 5983.47 V 871.57 c -38.46,-64.09 -110.24,-103.859 -183.29,-103.859 -183.3,0 -266.65,147.398 -266.65,338.399 0,185.85 83.35,328.13 266.65,328.13 73.05,0 144.83,-37.16 183.29,-98.69 v 98.69 z M 4628.62,767.711 h 155.09 V 1434.24 H 4628.62 Z M 2971.76,1150.36 c 0,-87.18 -16.65,-235.891 -161.49,-235.891 -58.96,0 -107.63,23.082 -107.63,157.671 v 362.1 H 2547.5 V 1020.9 c 0,-161.521 76.92,-253.83 225.58,-253.83 115.79,0 172.06,59.442 198.68,141.442 v -26.063 c 0,-122.41 -39.68,-215.207 -166.66,-233.25 -100.27,-14.219 -172.52,38.641 -227.95,115.66 l -83.54,-104.148 c 42.63,-73.992 173.66,-139.813 297.72,-139.711 17.72,0.012 35.3,1.371 52.46,4.238 188.29,31.563 283.07,160.582 283.07,346.953 v 152.059 409.99 h -155.1 z m -1311.28,-44.25 c 0,114.06 -55.1,193.55 -144.79,193.55 -93.61,0 -147.45,-79.49 -147.45,-193.55 0,-117.899 53.84,-198.688 147.45,-198.688 89.69,0 144.79,80.789 144.79,198.688 z m 2.61,328.13 h 155.1 V 767.711 h -155.1 V 871.57 c -38.51,-64.09 -110.29,-103.859 -183.34,-103.859 -183.3,0 -266.6,147.398 -266.6,338.399 0,185.85 83.3,328.13 266.6,328.13 73.05,0 144.83,-37.16 183.34,-98.69 z m 399.12,-190.38 c 0,34.22 48.71,58.26 120.5,58.26 74.31,0 158.92,-27.87 166.61,-101.33 l 110.2,58.22 c 0,93.77 -98.69,176.08 -272.99,176.08 -174.35,0 -279.46,-81.07 -279.46,-188.7 0,-255.851 412.74,-148.17 412.74,-268.468 0,-44.352 -53.79,-75.992 -130.71,-75.992 -84.61,0 -175.61,36.699 -185.87,139.32 l -124.32,-59.551 c 10.26,-122.84 124.32,-213.988 290.93,-213.988 196.12,0 299.98,97.508 299.98,213.988 0,239.361 -407.61,169.721 -407.61,262.161 z M 5464.36,981.699 c 0,-116.48 -103.87,-213.988 -299.98,-213.988 -166.61,0 -280.68,91.148 -290.94,213.988 l 124.33,59.551 c 10.26,-102.621 101.25,-139.32 185.86,-139.32 76.92,0 130.71,31.64 130.71,75.992 0,120.298 -412.74,12.617 -412.74,268.468 0,107.63 105.12,188.7 279.47,188.7 174.3,0 280.56,-89.87 280.56,-183.65 l -117.78,-50.65 c -7.69,73.46 -92.3,101.33 -166.6,101.33 -71.79,0 -120.51,-24.04 -120.51,-58.26 0,-92.44 407.62,-22.8 407.62,-262.161" /><path
         id="path920"
         style="fill:#41bb62;fill-opacity:1;fill-rule:nonzero;stroke:none"
         d="m 4605.54,1605.96 c 0,55.15 44.89,100 99.95,100 53.89,0 98.69,-44.85 98.69,-100 0,-53.84 -44.8,-98.68 -98.69,-98.68 -55.06,0 -99.95,44.84 -99.95,98.68" /><path
         id="path922"
         style="fill:#292738;fill-opacity:1;fill-rule:nonzero;stroke:none"
         d="m 952.891,1253.63 c -21.731,33.16 -63.496,50.64 -121.176,47.39 -93.371,-5.27 -148.125,-67.11 -160.891,-124.98 27.082,-29.55 151.832,-57.5 242.77,-26.39 46.66,15.96 64.918,64.91 39.297,103.98 m -422.184,-94.79 c 22.324,167.38 129.918,274.88 298.172,284.35 101.004,5.67 204.251,-30.51 261.201,-125.48 50.18,-83.62 58.97,-250.18 -156.678,-294.42 -224.425,-46.009 -366.879,61.62 -402.695,135.55" /></g></g></svg>