<svg xmlns="http://www.w3.org/2000/svg" xmlns:xlink="http://www.w3.org/1999/xlink" viewBox="26 20 260 138"><defs><filter id="luminosity-invert" width="43.4" height="51.1" x="147.6" y="50.4" color-interpolation-filters="sRGB" filterUnits="userSpaceOnUse"><feColorMatrix result="cm" values="-1 0 0 0 1 0 -1 0 0 1 0 0 -1 0 1 0 0 0 1 0"/></filter><filter id="luminosity-noclip" width="34.7" height="38.1" x="58.1" y="94.4" color-interpolation-filters="sRGB" filterUnits="userSpaceOnUse"><feFlood flood-color="#fff" result="bg"/><feBlend in="SourceGraphic" in2="bg"/></filter><filter id="luminosity-invert1" width="34.6" height="41.2" x="57.5" y="89.4" color-interpolation-filters="sRGB" filterUnits="userSpaceOnUse"><feColorMatrix result="cm" values="-1 0 0 0 1 0 -1 0 0 1 0 0 -1 0 1 0 0 0 1 0"/></filter><filter id="luminosity-noclip1" width="37.3" height="43.5" x="108.6" y="71.5" color-interpolation-filters="sRGB" filterUnits="userSpaceOnUse"><feFlood flood-color="#fff" result="bg"/><feBlend in="SourceGraphic" in2="bg"/></filter><filter id="luminosity-noclip2" width="38.1" height="44" x="83.9" y="81" color-interpolation-filters="sRGB" filterUnits="userSpaceOnUse"><feFlood flood-color="#fff" result="bg"/><feBlend in="SourceGraphic" in2="bg"/></filter><filter id="luminosity-invert2" width="39" height="45.6" x="105.8" y="67.4" color-interpolation-filters="sRGB" filterUnits="userSpaceOnUse"><feColorMatrix result="cm" values="-1 0 0 0 1 0 -1 0 0 1 0 0 -1 0 1 0 0 0 1 0"/></filter><filter id="luminosity-invert3" width="40.1" height="46.2" x="81.1" y="76.8" color-interpolation-filters="sRGB" filterUnits="userSpaceOnUse"><feColorMatrix result="cm" values="-1 0 0 0 1 0 -1 0 0 1 0 0 -1 0 1 0 0 0 1 0"/></filter><filter id="luminosity-noclip3" width="31.1" height="62.4" x="35" y="85.5" color-interpolation-filters="sRGB" filterUnits="userSpaceOnUse"><feFlood flood-color="#fff" result="bg"/><feBlend in="SourceGraphic" in2="bg"/></filter><filter id="luminosity-invert4" width="33" height="64.3" x="32.2" y="81.7" color-interpolation-filters="sRGB" filterUnits="userSpaceOnUse"><feColorMatrix result="cm" values="-1 0 0 0 1 0 -1 0 0 1 0 0 -1 0 1 0 0 0 1 0"/></filter><filter id="luminosity-invert5" width="35.7" height="42.3" x="184.4" y="51" color-interpolation-filters="sRGB" filterUnits="userSpaceOnUse"><feColorMatrix result="cm" values="-1 0 0 0 1 0 -1 0 0 1 0 0 -1 0 1 0 0 0 1 0"/></filter><filter id="luminosity-invert6" width="34.1" height="41.2" x="213" y="42.7" color-interpolation-filters="sRGB" filterUnits="userSpaceOnUse"><feColorMatrix result="cm" values="-1 0 0 0 1 0 -1 0 0 1 0 0 -1 0 1 0 0 0 1 0"/></filter><filter id="luminosity-invert7" width="48.9" height="51.1" x="233.3" y="26.8" color-interpolation-filters="sRGB" filterUnits="userSpaceOnUse"><feColorMatrix result="cm" values="-1 0 0 0 1 0 -1 0 0 1 0 0 -1 0 1 0 0 0 1 0"/></filter><mask id="mask" width="43.4" height="51.1" x="147.6" y="50.4" maskUnits="userSpaceOnUse"><image xlink:href="JC logo-01 New-1.png" width="79" height="93" style="filter:url(#luminosity-invert)" transform="matrix(.5 0 0 .5 147.6 50.4)"/></mask><mask id="mask-1" width="34.7" height="38.1" x="58.1" y="94.4" maskUnits="userSpaceOnUse"><image xlink:href="JC logo-01 New-2.png" width="791" height="870" style="filter:url(#luminosity-noclip)" transform="matrix(0 0 0 0 58.1 94.4)"/></mask><mask id="mask-2" width="34.6" height="41.2" x="57.5" y="89.4" maskUnits="userSpaceOnUse"><image xlink:href="JC logo-01 New-3.png" width="63" height="75" style="filter:url(#luminosity-invert1)" transform="matrix(.5 0 0 .5 57.5 89.4)"/></mask><mask id="mask-3" width="37.3" height="43.5" x="108.6" y="71.5" maskUnits="userSpaceOnUse"><image xlink:href="JC logo-01 New-4.png" width="850" height="993" style="filter:url(#luminosity-noclip1)" transform="matrix(0 0 0 0 108.6 71.5)"/></mask><mask id="mask-4" width="38.1" height="44" x="83.9" y="81" maskUnits="userSpaceOnUse"><image xlink:href="JC logo-01 New-5.png" width="869" height="1003" style="filter:url(#luminosity-noclip2)" transform="matrix(0 0 0 0 83.9 81)"/></mask><mask id="mask-5" width="39" height="45.6" x="105.8" y="67.4" maskUnits="userSpaceOnUse"><image xlink:href="JC logo-01 New-6.png" width="71" height="83" style="filter:url(#luminosity-invert2)" transform="matrix(.5 0 0 .5 105.8 67.4)"/></mask><mask id="mask-6" width="40.1" height="46.2" x="81.1" y="76.8" maskUnits="userSpaceOnUse"><image xlink:href="JC logo-01 New-7.png" width="73" height="84" style="filter:url(#luminosity-invert3)" transform="matrix(.5 0 0 .5 81.1 76.8)"/></mask><mask id="mask-7" width="31.1" height="62.4" x="35" y="85.5" maskUnits="userSpaceOnUse"><image xlink:href="JC logo-01 New-8.png" width="549" height="1100" style="filter:url(#luminosity-noclip3)" transform="matrix(0 0 0 0 35 85.5)"/></mask><mask id="mask-8" width="33" height="64.3" x="32.2" y="81.7" maskUnits="userSpaceOnUse"><image xlink:href="JC logo-01 New-9.png" width="60" height="117" style="filter:url(#luminosity-invert4)" transform="matrix(.5 0 0 .5 32.2 81.7)"/></mask><mask id="mask-9" width="35.7" height="42.3" x="184.4" y="51" maskUnits="userSpaceOnUse"><image xlink:href="JC logo-01 New-10.png" width="65" height="77" style="filter:url(#luminosity-invert5)" transform="matrix(.5 0 0 .5 184.4 51)"/></mask><mask id="mask-10" width="34.1" height="41.2" x="213" y="42.7" maskUnits="userSpaceOnUse"><image xlink:href="JC logo-01 New-11.png" width="62" height="75" style="filter:url(#luminosity-invert6)" transform="matrix(.5 0 0 .5 213 42.7)"/></mask><mask id="mask-11" width="48.9" height="51.1" x="233.3" y="26.8" maskUnits="userSpaceOnUse"><image xlink:href="JC logo-01 New-12.png" width="89" height="93" style="filter:url(#luminosity-invert7)" transform="matrix(.5 0 0 .5 233.3 26.8)"/></mask><linearGradient id="linear-gradient" x1="1846.7" x2="1849.1" y1="-474.2" y2="-469.2" gradientTransform="rotate(-18.6 2772.8709337 5229.91933164)" gradientUnits="userSpaceOnUse"><stop offset="0" stop-color="#ee3231"/><stop offset=".1" stop-color="#ed262a"/><stop offset=".2" stop-color="#ed2027"/><stop offset=".5" stop-color="#811517"/><stop offset="1" stop-color="#5b0b0c"/></linearGradient><linearGradient id="linear-gradient1" x1="1851.1" x2="1854" y1="-479" y2="-476" gradientTransform="rotate(-18.6 2772.8709337 5229.91933164)" gradientUnits="userSpaceOnUse"><stop offset=".2" stop-color="#ed2027"/><stop offset=".7" stop-color="#811517"/><stop offset="1" stop-color="#8a181a"/></linearGradient><linearGradient id="linear-gradient2" x1="1846" x2="1843.7" y1="-473.9" y2="-470.5" gradientTransform="rotate(-18.6 2772.8709337 5229.91933164)" gradientUnits="userSpaceOnUse"><stop offset="0" stop-color="#facacc"/><stop offset=".3" stop-color="#ef413b"/><stop offset=".5" stop-color="#ef413b"/><stop offset=".8" stop-color="#ee3231"/><stop offset="1" stop-color="#ee3231"/></linearGradient><linearGradient id="linear-gradient3" x1="1847" x2="1841.4" y1="-468.5" y2="-474.5" gradientTransform="rotate(-18.6 2772.8709337 5229.91933164)" gradientUnits="userSpaceOnUse"><stop offset="0" stop-color="#5b0b0c"/><stop offset=".6" stop-color="#8a181a"/><stop offset=".6" stop-color="#7d1415"/><stop offset=".7" stop-color="#6b0e0f"/><stop offset=".8" stop-color="#650d0d"/></linearGradient><linearGradient id="linear-gradient4" x1="1844.4" x2="1850.6" y1="-475.4" y2="-469" gradientTransform="rotate(-18.6 2772.8709337 5229.91933164)" gradientUnits="userSpaceOnUse"><stop offset=".4" stop-color="#facacc"/><stop offset="1" stop-color="#c9756d"/></linearGradient><linearGradient id="linear-gradient5" x1="1844.4" x2="1843.8" y1="-470.8" y2="-469.2" gradientTransform="rotate(-18.6 2772.8709337 5229.91933164)" gradientUnits="userSpaceOnUse"><stop offset="0" stop-color="#ba2025"/><stop offset=".2" stop-color="#e01f26"/><stop offset=".3" stop-color="#cf3928"/><stop offset=".7" stop-color="#781214"/></linearGradient><linearGradient id="linear-gradient6" x1="1847.7" x2="1843.5" y1="-481" y2="-480.7" gradientTransform="rotate(-18.6 2772.8709337 5229.91933164)" gradientUnits="userSpaceOnUse"><stop offset="0" stop-color="#ed2027"/><stop offset=".3" stop-color="#c61e24"/><stop offset=".5" stop-color="#ae1e22"/><stop offset=".7" stop-color="#a61e22"/></linearGradient><linearGradient id="linear-gradient7" x1="1845.4" x2="1847.7" y1="-480.7" y2="-478.8" gradientTransform="rotate(-18.6 2772.8709337 5229.91933164)" gradientUnits="userSpaceOnUse"><stop offset="0" stop-color="#650d0d"/><stop offset=".3" stop-color="#781214"/><stop offset=".9" stop-color="#8a181a"/></linearGradient><linearGradient id="linear-gradient8" x1="1846.3" x2="1846.3" y1="-481.4" y2="-481.4" gradientTransform="rotate(-18.6 2772.8709337 5229.91933164)" gradientUnits="userSpaceOnUse"><stop offset="0" stop-color="#f7a1a2"/><stop offset="1" stop-color="#ed2027"/></linearGradient><linearGradient xlink:href="#linear-gradient8" id="linear-gradient9" x1="1849.8" x2="1849.8" y1="-479.9" y2="-479.8"/><linearGradient id="linear-gradient10" x1="1843.1" x2="1852.7" y1="-477.1" y2="-477.1" gradientTransform="rotate(-18.6 2772.8709337 5229.91933164)" gradientUnits="userSpaceOnUse"><stop offset="0" stop-color="#fff"/><stop offset="0" stop-color="#fce6e6"/><stop offset=".2" stop-color="#facdcd"/><stop offset=".3" stop-color="#f9b9ba"/><stop offset=".5" stop-color="#f7abac"/><stop offset=".7" stop-color="#f7a3a4"/><stop offset="1" stop-color="#f7a1a2"/></linearGradient><radialGradient id="radial-gradient" cx="89.2" cy="99.5" r="50.1" fx="89.2" fy="99.5" gradientUnits="userSpaceOnUse"><stop offset=".3" stop-color="#9e1d20" stop-opacity="0"/><stop offset=".4" stop-color="#9e1d20" stop-opacity="0"/><stop offset=".5" stop-color="#9e1d20" stop-opacity="0"/><stop offset=".6" stop-color="#9e1d20" stop-opacity=".2"/><stop offset=".7" stop-color="#9e1d20" stop-opacity=".4"/><stop offset=".8" stop-color="#9e1d20" stop-opacity=".6"/><stop offset="1" stop-color="#9e1d20" stop-opacity=".9"/><stop offset="1" stop-color="#9e1d20"/></radialGradient><radialGradient id="radial-gradient1" cx="1734.6" cy="-584.7" r="1.2" fx="1734.6" fy="-584.7" gradientTransform="rotate(17.7 -5860.15043946 -29647.72689893) scale(5.1 5.3)" gradientUnits="userSpaceOnUse"><stop offset="0" stop-color="#f7a1a2"/><stop offset=".2" stop-color="#f26d6b"/><stop offset=".5" stop-color="#ed2027"/><stop offset=".9" stop-color="#a91d21"/><stop offset="1" stop-color="#9e1d20"/></radialGradient><radialGradient id="radial-gradient2" cx="1734.3" cy="-583.7" r=".5" fx="1734.3" fy="-583.7" gradientTransform="rotate(4.9 890.79281302 -102446.3919148) scale(5.1 .3)" gradientUnits="userSpaceOnUse"><stop offset="0" stop-color="#f8b6b9"/><stop offset=".3" stop-color="#f7a1a2"/><stop offset=".5" stop-color="#f48384"/><stop offset=".7" stop-color="#ef4948"/><stop offset=".9" stop-color="#ee3231"/></radialGradient><radialGradient id="radial-gradient3" cx="1735.2" cy="-585.4" r=".8" fx="1735.2" fy="-585.4" gradientTransform="rotate(-18.6 13912.40975032 25337.2986656) scale(5.1)" gradientUnits="userSpaceOnUse"><stop offset=".3" stop-color="#f26d6b"/><stop offset=".7" stop-color="#ee3231"/><stop offset=".9" stop-color="#ed2027"/></radialGradient><style>.st3{fill:#f8ac1c}.st4{fill:#faae1c}.st14{fill:#e02127}.st16{mix-blend-mode:multiply}.st18{fill:#231f20}.st30{opacity:.4}.st30,.st31{fill:#ba2127}.st43{fill:#c32126}.st44{fill:#f69320}.st45{fill:#9e1e22}.st46{mix-blend-mode:screen}.st50{fill:#fcb715}.st53{fill:#fff200}</style></defs><g style="isolation:isolate"><g id="Layer_1"><path d="M171.8 101.3c-4 0-7.8-1-11.5-3.1-5.8-3.2-9.7-8.3-11.5-15.2-1.9-7.2-1.2-13.8 2-19.5 3.2-5.8 8.5-9.7 15.6-11.6 2.1-.5 4-.8 5.8-.8s3.2.2 4.6.7c3.2 1.1 5.2 3.3 6.1 6.6l1.2 4.4-1.7.4-.4-.3c-1.6-1.2-3.7-1.9-6.3-2.1h-1.3c-1.8 0-3.6.2-5.3.7-3.9 1-6.7 3.1-8.4 6.3-1.9 3.2-2.2 6.9-1.2 11 1.3 4.9 3.6 8.4 6.8 10.4 1.9 1.2 4.1 1.8 6.4 1.8s2.8-.2 4.4-.6c4.9-1.3 8.4-3.7 10.3-7.1l.2-.3 1.6-.4 1.1 4.3c.8 3.2-.1 6.2-2.9 8.8-2.3 2.2-5.3 3.8-9 4.8-2.2.6-4.5.9-6.6.9Z" class="st50"/><path d="M172.2 52c1.6 0 3 .2 4.3.7 2.9 1 4.7 3 5.5 6l.9 3.5h-.3c-1.7-1.3-4-2-6.9-2.2h-1.4c-1.9 0-3.7.2-5.6.7-4.1 1.1-7.1 3.3-9 6.7-2 3.4-2.4 7.3-1.3 11.7 1.4 5.2 3.8 8.8 7.2 10.9 2.1 1.3 4.3 1.9 6.9 1.9s3-.2 4.6-.6c5.2-1.4 8.8-3.9 10.9-7.5h.3l.9 3.3c.8 2.9-.1 5.5-2.6 7.9-2.1 2.1-5 3.6-8.6 4.5-2.2.6-4.3.9-6.4.9-3.8 0-7.5-1-11-2.9-5.6-3.1-9.3-8-11-14.6-1.9-7-1.2-13.3 1.9-18.8 3.1-5.6 8.1-9.3 15-11.1 2-.5 3.8-.8 5.5-.8m.2-2c-1.8 0-3.9.3-6 .9-7.4 1.9-12.8 6-16.2 12-3.4 5.9-4.1 12.8-2.1 20.2 1.9 7.1 5.9 12.4 11.9 15.7 3.8 2.1 7.8 3.2 11.9 3.2s4.5-.3 6.8-.9c3.9-1 7-2.7 9.4-5 3.7-3.6 3.7-7.3 3.1-9.7l-.9-3.4-.5-1.8-1.8.5h-.3l-.8.3-.4.7c-1.8 3.2-5 5.4-9.7 6.6-1.5.4-2.8.6-4.1.6-2.2 0-4.1-.5-5.9-1.6-3-1.8-5.1-5.1-6.4-9.8-1-3.9-.7-7.3 1.1-10.2 1.7-3 4.2-4.9 7.9-5.8 1.7-.4 3.4-.7 5.1-.7h1.2c2.4.2 4.4.8 5.8 1.9l.7.6.9-.2h.3l1.8-.6-.5-1.8-.9-3.5c-1-3.6-3.2-6.1-6.7-7.3-1.5-.5-3.1-.8-4.9-.8Z" class="st43"/><g class="st46" style="mask:url(#mask)"><path d="M182.6 62.3c-1.7-1.3-4-2.1-6.9-2.3-2.3-.1-4.6 0-6.9.7-4.1 1.1-7.1 3.3-9 6.7-2 3.4-2.4 7.3-1.3 11.7 1.4 5.2 3.8 8.8 7.2 10.9 3.2 2 7.1 2.5 11.5 1.3 5.2-1.4 8.8-3.9 10.9-7.5h.3l.9 3.3c.8 2.9-.1 5.5-2.6 7.9-2.1 2.1-5 3.6-8.6 4.5-6.2 1.6-12 .9-17.4-2.1-5.6-3.1-9.3-8-11-14.6-1.9-7-1.2-13.3 1.9-18.8 3.1-5.6 8.1-9.3 15-11.1 3.8-1 7.1-1.1 9.8-.1 2.9 1 4.7 3 5.5 6l.9 3.5h-.3Z" class="st53"/></g><path d="M139.3 99.5c0 27.7-22.4 50.1-50.1 50.1s-50.1-22.4-50.1-50.1 22.4-50.1 50.1-50.1 50.1 22.4 50.1 50.1Z" class="st45"/><path d="M139.3 99.5c0 27.7-22.4 50.1-50.1 50.1s-50.1-22.4-50.1-50.1 22.4-50.1 50.1-50.1 50.1 22.4 50.1 50.1Z" style="mix-blend-mode:multiply;fill:url(#radial-gradient)"/><path d="M46 130.3c.4-.5.4-1.2 0-1.7l-.2-.2c-.6-.4-1.4-.3-1.9.2-.4.6-.3 1.4.2 1.9.6.5 1.4.4 1.9-.2ZM43.6 126.1c.4-.5.4-1.2 0-1.7l-.2-.2c-.6-.4-1.4-.3-1.9.2-.4.6-.3 1.4.2 1.9.6.5 1.4.4 1.9-.2Z" class="st45"/><path d="M41.7 121.7c.4-.5.4-1.2 0-1.7l-.2-.2c-.6-.4-1.4-.3-1.9.2-.4.6-.3 1.4.2 1.9.6.5 1.4.4 1.9-.2ZM40.1 117.2c.4-.5.4-1.2 0-1.7l-.2-.2c-.6-.4-1.4-.3-1.9.2-.4.6-.3 1.4.2 1.9.6.5 1.4.4 1.9-.2ZM38.7 112.6c.4-.5.4-1.2 0-1.7l-.2-.2c-.6-.4-1.4-.3-1.9.2-.4.6-.3 1.4.2 1.9.6.5 1.4.4 1.9-.2Z" class="st14"/><path d="M37.8 107.8c.4-.5.4-1.2 0-1.7l-.2-.2c-.6-.4-1.4-.3-1.9.2-.4.6-.3 1.4.2 1.9.6.5 1.4.4 1.9-.2ZM37.2 103.1c.4-.5.4-1.2 0-1.7l-.2-.2c-.6-.4-1.4-.3-1.9.2-.4.6-.3 1.4.2 1.9.6.5 1.4.4 1.9-.2ZM37.1 98.2c.4-.5.4-1.2 0-1.7l-.2-.2c-.6-.4-1.4-.3-1.9.2-.4.6-.3 1.4.2 1.9.6.5 1.4.4 1.9-.2ZM37.9 125c.4-.5.4-1.2 0-1.7l-.2-.2c-.6-.4-1.4-.3-1.9.2-.4.6-.3 1.4.2 1.9.6.5 1.4.4 1.9-.2ZM36.3 120.5c.4-.5.4-1.2 0-1.7l-.2-.2c-.6-.4-1.4-.3-1.9.2-.4.6-.3 1.4.2 1.9.6.5 1.4.4 1.9-.2Z" class="st45"/><path d="M141.9 83.7c-.1-.6-.7-1.1-1.3-1h-.3c-.7.2-1.2.9-1 1.6.1.7.9 1.1 1.6 1 .7-.1 1.2-.8 1-1.6Z" class="st14"/><path d="M142.7 88.4c-.1-.6-.7-1.1-1.3-1h-.3c-.7.2-1.2.9-1 1.6.1.7.9 1.1 1.6 1 .7-.1 1.2-.8 1-1.6Z" class="st45"/><path d="M143.3 93.2c-.1-.6-.7-1.1-1.3-1h-.3c-.7.2-1.2.9-1 1.6.1.7.9 1.1 1.6 1 .7-.1 1.2-.8 1-1.6Z" class="st14"/><path d="M143.5 98c-.1-.6-.7-1.1-1.3-1h-.3c-.7.2-1.2.9-1 1.6.1.7.9 1.1 1.6 1 .7-.1 1.2-.8 1-1.6ZM141.8 112.3c-.1-.6-.7-1.1-1.3-1h-.3c-.7.2-1.2.9-1 1.6.1.7.9 1.1 1.6 1 .7-.1 1.2-.8 1-1.6ZM140.5 116.9c-.1-.6-.7-1.1-1.3-1h-.3c-.7.2-1.2.9-1 1.6.1.7.9 1.1 1.6 1 .7-.1 1.2-.8 1-1.6ZM138.8 121.5c-.1-.6-.7-1.1-1.3-1h-.3c-.7.2-1.2.9-1 1.6.1.7.9 1.1 1.6 1 .7-.1 1.2-.8 1-1.6ZM136.9 125.8c-.1-.6-.7-1.1-1.3-1h-.3c-.7.2-1.2.9-1 1.6.1.7.9 1.1 1.6 1 .7-.1 1.2-.8 1-1.6Z" class="st45"/><path d="M134.5 130c-.1-.6-.7-1.1-1.3-1h-.3c-.7.2-1.2.9-1 1.6.1.7.9 1.1 1.6 1 .7-.1 1.2-.8 1-1.6Z" class="st14"/><path d="M131.8 134c-.1-.6-.7-1.1-1.3-1h-.3c-.7.2-1.2.9-1 1.6.1.7.9 1.1 1.6 1 .7-.1 1.2-.8 1-1.6ZM135.7 135.7c-.1-.6-.7-1.1-1.3-1h-.3c-.7.2-1.2.9-1 1.6.1.7.9 1.1 1.6 1 .7-.1 1.2-.8 1-1.6Z" class="st45"/><path d="M138.4 131.6c-.1-.6-.7-1.1-1.3-1h-.3c-.7.2-1.2.9-1 1.6.1.7.9 1.1 1.6 1 .7-.1 1.2-.8 1-1.6Z" class="st14"/><path d="M140.9 127c-.1-.6-.7-1.1-1.3-1h-.3c-.7.2-1.2.9-1 1.6.1.7.9 1.1 1.6 1 .7-.1 1.2-.8 1-1.6Z" class="st45"/><path d="M142.8 122.7c-.1-.6-.7-1.1-1.3-1h-.3c-.7.2-1.2.9-1 1.6.1.7.9 1.1 1.6 1 .7-.1 1.2-.8 1-1.6ZM144.7 118.2c-.1-.6-.7-1.1-1.3-1h-.3c-.7.2-1.2.9-1 1.6.1.7.9 1.1 1.6 1 .7-.1 1.2-.8 1-1.6Z" class="st14"/><path d="M150.8 125.2c-.1-.6-.7-1.1-1.3-1h-.3c-.7.2-1.2.9-1 1.6.1.7.9 1.1 1.6 1 .7-.1 1.2-.8 1-1.6ZM152.6 120.8c-.1-.6-.7-1.1-1.3-1h-.3c-.7.2-1.2.9-1 1.6.1.7.9 1.1 1.6 1 .7-.1 1.2-.8 1-1.6ZM145.8 113.6c-.1-.6-.7-1.1-1.3-1h-.3c-.7.2-1.2.9-1 1.6.1.7.9 1.1 1.6 1 .7-.1 1.2-.8 1-1.6ZM146.6 108.9c-.1-.6-.7-1.1-1.3-1h-.3c-.7.2-1.2.9-1 1.6.1.7.9 1.1 1.6 1 .7-.1 1.2-.8 1-1.6ZM147.5 104.3c-.1-.6-.7-1.1-1.3-1h-.3c-.7.2-1.2.9-1 1.6.1.7.9 1.1 1.6 1 .7-.1 1.2-.8 1-1.6ZM147.8 99.5c-.1-.6-.7-1.1-1.3-1h-.3c-.7.2-1.2.9-1 1.6.1.7.9 1.1 1.6 1 .7-.1 1.2-.8 1-1.6Z" class="st45"/><path d="M152 101c-.1-.6-.7-1.1-1.3-1h-.3c-.7.2-1.2.9-1 1.6.1.7.9 1.1 1.6 1 .7-.1 1.2-.8 1-1.6Z" class="st14"/><path d="M151.5 105.7c-.1-.6-.7-1.1-1.3-1h-.3c-.7.2-1.2.9-1 1.6.1.7.9 1.1 1.6 1 .7-.1 1.2-.8 1-1.6ZM155.6 107.1c-.1-.6-.7-1.1-1.3-1h-.3c-.7.2-1.2.9-1 1.6.1.7.9 1.1 1.6 1 .7-.1 1.2-.8 1-1.6ZM154.7 111.4c-.1-.6-.7-1.1-1.3-1h-.3c-.7.2-1.2.9-1 1.6.1.7.9 1.1 1.6 1 .7-.1 1.2-.8 1-1.6ZM153.6 116.1c-.1-.6-.7-1.1-1.3-1h-.3c-.7.2-1.2.9-1 1.6.1.7.9 1.1 1.6 1 .7-.1 1.2-.8 1-1.6Z" class="st45"/><path d="M147.5 94c-.1-.6-.7-1.1-1.3-1h-.3c-.7.2-1.2.9-1 1.6.1.7.9 1.1 1.6 1 .7-.1 1.2-.8 1-1.6Z" class="st14"/><path d="M147.1 89.2c-.1-.6-.7-1.1-1.3-1h-.3c-.7.2-1.2.9-1 1.6.1.7.9 1.1 1.6 1 .7-.1 1.2-.8 1-1.6ZM146.3 84.4c-.1-.6-.7-1.1-1.3-1h-.3c-.7.2-1.2.9-1 1.6.1.7.9 1.1 1.6 1 .7-.1 1.2-.8 1-1.6Z" class="st45"/><path d="M60.1 90.4c.2-.6-.1-1.3-.8-1.6-.6-.2-1.4.1-1.6.8-.2.7.2 1.4.8 1.6.7.2 1.4-.2 1.5-.8ZM118.3 87c.6-.3.9-1 .6-1.7-.3-.7-1.1-.9-1.7-.6-.6.3-.9 1.1-.6 1.7.3.6 1 .9 1.6.6Z" class="st14"/><path d="M42.2 85c-.2.7.2 1.4.9 1.6.7.2 1.4-.2 1.5-.8.2-.6-.1-1.3-.8-1.6-.6-.2-1.4.1-1.6.8Z" class="st44"/><path d="M53 86.2c.2-.6 0-1.3-.7-1.6-.6-.3-1.4 0-1.6.7-.2.7.1 1.4.8 1.6.7.2 1.4-.1 1.6-.7ZM67.3 95.1c.1-.6-.3-1.3-1-1.5-.7-.2-1.4.2-1.5 1-.1.7.3 1.4 1 1.5.7 0 1.3-.3 1.4-1ZM58.7 99.4c0-.7-.5-1.2-1.2-1.3-.7 0-1.3.5-1.3 1.3 0 .7.6 1.3 1.3 1.3.7 0 1.2-.6 1.2-1.3ZM50.9 94.9c0-.7-.4-1.3-1.1-1.4-.7-.1-1.3.4-1.4 1.1-.1.7.4 1.3 1.1 1.4.7 0 1.3-.4 1.4-1.1ZM59.1 94.9c.1-.7-.3-1.3-1-1.4-.7-.1-1.3.3-1.5 1.1 0 .7.4 1.4 1.1 1.4.7 0 1.3-.4 1.4-1.1ZM46.6 99.3c0-.7-.5-1.2-1.2-1.3-.7 0-1.3.5-1.3 1.3 0 .7.6 1.3 1.3 1.3.7 0 1.2-.6 1.2-1.3Z" class="st14"/><path d="M50.5 73.4c.4-.6.2-1.3-.3-1.7-.6-.4-1.4-.3-1.8.3-.4.6-.2 1.4.4 1.8.6.4 1.4.2 1.7-.4ZM58.3 68.3c-.5-.5-1.3-.5-1.8 0s-.5 1.3 0 1.8 1.3.4 1.8 0c.5-.5.5-1.3 0-1.8ZM53.2 69.8c.4-.5.4-1.3-.1-1.7-.5-.5-1.3-.4-1.8.1-.4.6-.4 1.4.2 1.8.5.4 1.3.3 1.7-.2Z" class="st44"/><path d="M134.7 84.6c-.7.2-1 .9-.8 1.6.2.6.9 1 1.5.9.7-.2 1.1-.9.9-1.6-.2-.7-.9-1.1-1.6-.8ZM68.9 80.7c-.5-.5-1.3-.4-1.8.2-.5.6-.4 1.4.1 1.8.6.4 1.3.3 1.8-.2.4-.5.4-1.3-.1-1.8ZM64.1 82.3c.4-.5.3-1.3-.3-1.7-.6-.4-1.3-.3-1.8.3-.4.6-.2 1.4.3 1.8.6.4 1.4.2 1.7-.3ZM130.4 84.5c-.6.2-1 1-.8 1.6.2.6.9 1 1.6.8.7-.2 1-.9.8-1.6-.2-.7-.9-1-1.6-.8ZM57 78.2c.3-.6.2-1.3-.3-1.7-.6-.4-1.4-.3-1.7.3-.4.6-.2 1.4.4 1.7.6.4 1.4.2 1.7-.3ZM66.9 77c-.5-.5-1.3-.5-1.8 0s-.5 1.4 0 1.8c.5.5 1.3.4 1.8 0 .5-.5.4-1.3 0-1.8ZM85.4 131c0 .7.4 1.3 1.2 1.4.7 0 1.3-.5 1.4-1.2 0-.7-.5-1.3-1.2-1.3s-1.3.4-1.4 1.1ZM74.2 132c-.3.6 0 1.4.7 1.7.7.3 1.4 0 1.6-.7.2-.6 0-1.4-.7-1.6-.6-.3-1.3 0-1.6.6Z" class="st14"/><path d="M90.3 135.2c0-.7-.6-1.2-1.2-1.2-.7 0-1.2.5-1.3 1.2 0 .7.5 1.3 1.2 1.3s1.3-.6 1.3-1.3Z" class="st44"/><path d="M81.7 131.6c.7.2 1.4-.3 1.5-1 .1-.7-.3-1.3-1-1.5-.7-.1-1.3.3-1.5.9-.2.7.2 1.4.9 1.5Z" class="st14"/><path d="M125.6 121.6c-.4.6-.2 1.3.4 1.7.6.4 1.4.2 1.8-.4.4-.6.2-1.4-.4-1.7-.6-.3-1.4-.1-1.7.4ZM52.2 123.1c.6-.4.8-1.1.4-1.7-.3-.6-1.1-.8-1.7-.5-.6.3-.8 1.1-.4 1.7.4.6 1.2.8 1.7.4ZM87.9 143.3c0-.7-.5-1.3-1.2-1.3s-1.3.5-1.3 1.2.5 1.3 1.2 1.4c.7 0 1.3-.5 1.3-1.2ZM69.5 143.2c-.3.6 0 1.4.7 1.7.7.3 1.4 0 1.7-.7.2-.6 0-1.4-.7-1.6-.6-.3-1.3 0-1.6.6Z" class="st44"/><path d="M74.7 146.5c.7.2 1.4-.2 1.6-.8.2-.7-.2-1.4-.8-1.5-.6-.2-1.3.1-1.6.8-.2.6.1 1.4.8 1.6ZM68.1 133.3c-.4.6-.2 1.4.4 1.7.6.4 1.4.1 1.7-.5.3-.6.1-1.4-.4-1.7-.6-.3-1.3-.1-1.7.4ZM78.6 133.7c-.2.7.2 1.4.9 1.6.7.2 1.4-.2 1.5-.9.2-.7-.2-1.3-.9-1.5-.6-.2-1.3.2-1.5.9Z" class="st14"/><path d="M90.1 139.3c0 .7.6 1.3 1.3 1.2.7 0 1.2-.7 1.2-1.3 0-.7-.6-1.2-1.3-1.2-.7 0-1.2.6-1.2 1.3ZM85.5 139.1c0 .7.4 1.3 1.2 1.4.7 0 1.3-.5 1.3-1.2s-.5-1.3-1.2-1.3-1.2.5-1.3 1.2Z" class="st44"/><path d="M42.4 109.9c.7-.2 1.1-.8 1-1.5-.1-.7-.8-1.1-1.4-1-.7.1-1.1.8-1 1.5.1.7.8 1.1 1.5 1ZM57.7 109.1c.2.7.9 1.1 1.6.8.7-.2 1-.9.8-1.6-.2-.6-.9-1-1.5-.9-.7.2-1.1.9-.9 1.6ZM64.4 108.4c-.2-.6-.9-1-1.6-.8-.7.2-1 .9-.8 1.6.3.7 1 1 1.6.8.6-.3 1-1 .7-1.6ZM46.8 104c0-.7-.7-1.2-1.4-1.1-.7 0-1.2.7-1.1 1.4 0 .7.7 1.2 1.4 1.1.7 0 1.2-.7 1.1-1.4Z" class="st14"/><path d="M127.8 117.6c-.3.6 0 1.4.6 1.7.6.3 1.4 0 1.7-.6.3-.7 0-1.4-.6-1.7-.6-.3-1.4 0-1.7.6Z" class="st44"/><path d="M60.1 112c-.6.3-.9 1-.6 1.7.3.7 1.1.9 1.7.6.6-.3.9-1.1.6-1.7-.3-.6-1-.9-1.7-.6Z" class="st14"/><path d="M132.2 117.6c-.2.6 0 1.3.6 1.6.6.3 1.4 0 1.7-.7s0-1.4-.7-1.7c-.6-.2-1.4 0-1.6.7Z" class="st44"/><path d="M121 112.8c-.3.6 0 1.3.6 1.6.6.3 1.4 0 1.7-.7.3-.7 0-1.4-.7-1.6-.6-.2-1.4 0-1.6.7Z" class="st31"/><path d="M84.8 65.3c.7 0 1.1-.7 1.1-1.4s-.7-1.2-1.4-1.1c-.7 0-1.2.7-1.1 1.4.1.7.7 1.1 1.4 1.1Z" class="st14"/><path d="M76.7 61.7c.2.7.9 1 1.5.8.6-.2 1-.9.8-1.5-.2-.7-.9-1.1-1.5-.9-.7.2-1 .9-.8 1.6Z" class="st44"/><path d="M72.4 63.4c.3.6 1 .9 1.6.6.6-.3.9-1 .7-1.6-.2-.6-1-1-1.6-.7-.6.3-.9 1-.6 1.7ZM85.7 55.8c0 .7.7 1.2 1.3 1.2.7 0 1.2-.6 1.2-1.3 0-.7-.6-1.2-1.3-1.2-.7 0-1.3.7-1.2 1.3Z" class="st14"/><path d="M97.7 56.5c.1-.7-.3-1.3-1-1.5-.7-.1-1.4.4-1.5 1.1 0 .7.4 1.3 1 1.4.7.1 1.3-.3 1.5-1ZM91.8 54.5c-.7 0-1.3.5-1.3 1.2S91 57 91.7 57s1.3-.5 1.3-1.2-.5-1.3-1.2-1.4ZM76.4 57.5c.2.7.9 1.1 1.6.9.7-.2 1.1-.9.9-1.5-.2-.7-.9-1.1-1.6-.9-.7.2-1.1.9-.9 1.6ZM69.8 55.7c.3.6 1 .9 1.6.7.6-.2.9-1 .7-1.6-.2-.6-1-1-1.6-.7-.7.3-1 1-.7 1.7Z" class="st44"/><path d="M96.6 67.4c-.7-.2-1.4.3-1.5 1-.1.7.3 1.3 1 1.5.7.1 1.3-.3 1.5-.9.2-.7-.2-1.4-.9-1.5ZM104.1 67.1c.3-.6 0-1.4-.7-1.7-.7-.3-1.4 0-1.6.7-.2.6 0 1.4.7 1.6.6.3 1.3 0 1.6-.6ZM105.6 61.9c-.6-.3-1.4 0-1.6.7-.3.7 0 1.4.6 1.6.6.3 1.3 0 1.6-.6.3-.6 0-1.4-.6-1.7ZM110.3 65.8c.4-.6.2-1.4-.4-1.7-.6-.4-1.4-.1-1.7.5-.3.6-.1 1.4.4 1.7.6.3 1.3.1 1.7-.4ZM74.5 66.9c.3.6 1 .9 1.6.7.6-.2.9-1 .7-1.6-.2-.7-1-1-1.6-.7-.7.3-1 1-.7 1.7ZM81 68.9c.2.7.9 1.1 1.5.9.6-.2 1.1-.8 1-1.5-.1-.7-.8-1.1-1.5-1-.7.2-1.1.8-1 1.5ZM83.2 72.6c.2.7.8 1.1 1.5 1 .7-.1 1.1-.7 1.1-1.4 0-.6-.6-1.1-1.2-1.1h-.3c-.7.1-1.2.8-1.1 1.5ZM88 71.9c0 .7.6 1.2 1.3 1.2.7 0 1.3-.5 1.3-1.2 0-.6-.4-1.1-1-1.3h-.3c-.7 0-1.3.6-1.3 1.3ZM46.1 81.5c.2-.6 0-1.3-.6-1.6-.6-.3-1.4 0-1.7.7-.3.7 0 1.4.7 1.7.6.2 1.4 0 1.6-.7ZM76.9 80.9c.5-.3.7-1.1.4-1.7-.4-.6-1.1-.8-1.7-.4-.6.4-.7 1.2-.3 1.8.4.6 1.2.7 1.7.3Z" class="st14"/><path d="M48.1 77.3c.3-.6.1-1.3-.5-1.7-.6-.3-1.4-.1-1.7.5-.3.6 0 1.4.5 1.7.6.3 1.4 0 1.7-.5Z" class="st45"/><path d="M74.2 54c.2.7.9 1 1.6.8.6-.2 1-.9.9-1.5s-.9-1.1-1.6-.9c-.7.2-1.1.9-.8 1.6ZM83.4 51.9c0 .7.7 1.2 1.4 1.1.7 0 1.2-.6 1.1-1.3 0-.7-.7-1.2-1.4-1.2s-1.2.7-1.1 1.4ZM88.1 51.6c0 .7.6 1.2 1.3 1.2.7 0 1.2-.5 1.3-1.2 0-.7-.5-1.3-1.3-1.3-.7 0-1.3.6-1.3 1.3Z" class="st14"/><path d="M94.2 50.6c-.7 0-1.3.5-1.4 1.1 0 .7.5 1.3 1.1 1.3.7 0 1.3-.4 1.4-1.1 0-.7-.4-1.3-1.1-1.4ZM96.5 59.1c-.7-.1-1.3.3-1.4 1 0 .7.4 1.3 1 1.4.6.1 1.3-.3 1.4-1 .2-.7-.3-1.3-1-1.5Z" class="st44"/><path d="M95.1 76.7c.2-.7-.2-1.4-1-1.5-.7-.1-1.4.3-1.5 1 0 .7.3 1.3 1 1.4.6.1 1.3-.3 1.5-1Z" class="st14"/><path d="M110.5 59.7c-.6-.3-1.4 0-1.7.5-.3.6 0 1.4.5 1.7.6.3 1.3.1 1.7-.5.3-.6.1-1.4-.5-1.7ZM112.5 56.2c-.6-.3-1.4 0-1.7.5-.3.6 0 1.4.5 1.7.6.3 1.3.1 1.7-.5.3-.6.1-1.4-.5-1.7ZM117 60.5c.4-.6.3-1.4-.3-1.8-.6-.4-1.4-.2-1.8.4-.4.6-.2 1.4.4 1.7.6.4 1.3.2 1.7-.3Z" class="st44"/><path d="M111.8 70.3c-.6-.5-1.4-.3-1.8.2-.4.6-.3 1.3.2 1.7.5.4 1.3.3 1.7-.2.4-.5.4-1.3-.2-1.8ZM124.1 64.9c-.5-.5-1.3-.5-1.8 0s-.5 1.3 0 1.8 1.3.5 1.8 0 .5-1.3 0-1.8ZM109.8 73.9c-.6-.5-1.4-.4-1.8.2-.4.6-.3 1.3.2 1.8.5.4 1.3.4 1.8-.2.5-.5.4-1.3-.2-1.8ZM107.8 67.6c-.6-.4-1.4-.1-1.7.5-.3.6-.1 1.4.5 1.7.6.3 1.3.1 1.7-.4.4-.6.2-1.4-.4-1.7ZM70.3 75.7c.5-.4.6-1.2.2-1.8-.4-.6-1.2-.7-1.8-.2-.6.4-.6 1.3-.2 1.8.5.5 1.2.6 1.8.2Z" class="st14"/><path d="M68.3 72.1c.5-.4.7-1.2.2-1.7-.4-.6-1.2-.7-1.8-.3-.6.4-.7 1.2-.2 1.8.4.5 1.2.6 1.7.2Z" class="st45"/><path d="M79.1 78.2c.3.6 1 .9 1.6.7.6-.2.9-.9.7-1.6-.2-.7-1-1-1.6-.7-.7.3-1 1-.7 1.7ZM65.4 64.1c.6-.4.7-1.1.4-1.7-.4-.6-1.2-.8-1.8-.4-.6.4-.7 1.2-.3 1.8.4.6 1.2.7 1.7.3ZM64.6 68.2c.4.5 1.2.7 1.7.3.5-.4.7-1.1.3-1.7-.4-.6-1.2-.7-1.8-.3-.6.4-.7 1.2-.2 1.8ZM122.4 108.6c-.2.6.2 1.3.9 1.5.7.2 1.4-.2 1.6-.9.2-.7-.2-1.4-.9-1.5-.7-.2-1.3.2-1.5.9ZM66.2 108.9c.3.7 1 1 1.7.7.6-.3.9-1 .7-1.6-.2-.6-.9-.9-1.6-.7-.7.2-1 1-.7 1.6ZM126.6 108.6c-.1.6.3 1.3.9 1.5.7.2 1.4-.2 1.5-.9.2-.7-.3-1.4-.9-1.5-.7-.1-1.4.3-1.5.9ZM134.9 108.8c-.1.7.3 1.3 1 1.5.7.2 1.4-.3 1.5-1 .1-.7-.3-1.4-1-1.5-.7-.1-1.3.3-1.5 1ZM133.2 109.4c.2-.7-.3-1.4-1-1.5-.7-.1-1.3.3-1.5 1-.2.7.3 1.3.9 1.5.7.2 1.4-.3 1.5-1ZM127.7 99.7c0 .7.5 1.2 1.2 1.2s1.3-.5 1.3-1.2-.6-1.3-1.3-1.2c-.7 0-1.2.6-1.2 1.2ZM131.8 99.7c0 .7.5 1.2 1.2 1.3.7 0 1.3-.5 1.3-1.3 0-.7-.6-1.3-1.3-1.3-.7 0-1.2.6-1.2 1.3ZM119.6 99.6c0 .7.5 1.2 1.2 1.3.7 0 1.3-.5 1.3-1.3 0-.7-.6-1.3-1.3-1.3-.7 0-1.2.6-1.2 1.3ZM135.8 99.7c0 .7.5 1.2 1.2 1.3.7 0 1.3-.5 1.3-1.3 0-.7-.6-1.3-1.3-1.3-.7 0-1.2.6-1.2 1.3ZM125.1 129.3c-.4.5-.4 1.3.1 1.7.5.5 1.3.4 1.8-.1.4-.6.4-1.4-.2-1.8-.5-.4-1.3-.3-1.7.2ZM60.3 99.4c0 .7.6 1.3 1.3 1.3.7 0 1.2-.6 1.2-1.3 0-.7-.5-1.3-1.2-1.3s-1.3.5-1.3 1.3ZM71.2 99.4c0-.7-.5-1.2-1.2-1.3-.7 0-1.3.5-1.3 1.3 0 .7.6 1.3 1.3 1.3.7 0 1.2-.6 1.2-1.3ZM75.4 99.5c0-.7-.5-1.2-1.2-1.2s-1.3.5-1.3 1.2.6 1.3 1.3 1.2c.7 0 1.2-.6 1.2-1.2Z" class="st14"/><path d="M84 99.5c0-.7-.5-1.2-1.2-1.3-.7 0-1.3.5-1.3 1.3 0 .7.6 1.3 1.3 1.3.7 0 1.2-.6 1.2-1.3Z" class="st31"/><path d="M79.7 99.5c0-.7-.5-1.2-1.2-1.3-.7 0-1.3.5-1.3 1.2s.6 1.3 1.3 1.3c.7 0 1.2-.6 1.2-1.2Z" class="st14"/><path d="M88.3 99.5c0-.7-.5-1.2-1.2-1.3-.7 0-1.3.5-1.3 1.3 0 .7.6 1.3 1.3 1.3.7 0 1.2-.6 1.2-1.3ZM96.8 99.5c0-.6-.5-1.2-1.2-1.2s-1.3.5-1.3 1.2.6 1.3 1.3 1.2c.7 0 1.2-.6 1.2-1.2ZM90.1 99.5c0 .7.6 1.3 1.3 1.3.7 0 1.2-.6 1.2-1.3 0-.7-.5-1.3-1.2-1.3s-1.3.5-1.3 1.3ZM101.1 99.6c0-.7-.5-1.2-1.2-1.3-.7 0-1.3.5-1.3 1.3 0 .7.6 1.3 1.3 1.3.7 0 1.2-.6 1.2-1.3Z" class="st30"/><path d="M105.4 99.6c0-.7-.5-1.2-1.2-1.3-.7 0-1.3.5-1.3 1.2s.6 1.3 1.3 1.3c.7 0 1.2-.6 1.2-1.2Z" class="st31"/><path d="M109.7 99.6c0-.7-.5-1.2-1.2-1.3-.7 0-1.3.5-1.3 1.3 0 .7.6 1.3 1.3 1.3.7 0 1.2-.6 1.2-1.3ZM71.9 104c0-.7-.5-1.2-1.2-1.3-.7 0-1.3.5-1.3 1.3 0 .7.6 1.3 1.3 1.3.7 0 1.2-.6 1.2-1.3ZM76.5 104.1c0-.7-.5-1.2-1.2-1.2s-1.3.5-1.3 1.2.6 1.3 1.3 1.2c.7 0 1.2-.6 1.2-1.2ZM81.2 104.1c0-.7-.5-1.2-1.2-1.3s-1.3.5-1.3 1.2.6 1.3 1.3 1.2c.7 0 1.2-.6 1.2-1.2ZM99.6 104.2c0-.7-.5-1.2-1.2-1.3-.7 0-1.3.5-1.3 1.3 0 .7.6 1.3 1.3 1.3.7 0 1.2-.6 1.2-1.3ZM108.9 104.2c0-.7-.5-1.2-1.2-1.3-.7 0-1.3.5-1.3 1.3 0 .7.6 1.3 1.3 1.3.7 0 1.2-.6 1.2-1.3ZM73.5 108.5c0-.7-.5-1.2-1.2-1.3-.7 0-1.3.5-1.3 1.3 0 .7.6 1.3 1.3 1.3.7 0 1.2-.6 1.2-1.3ZM78.3 108.5c0-.7-.5-1.2-1.2-1.2s-1.3.5-1.3 1.2.6 1.3 1.3 1.2c.7 0 1.2-.6 1.2-1.2ZM83.1 108.5c0-.7-.5-1.2-1.2-1.3-.7 0-1.3.5-1.3 1.2s.6 1.3 1.3 1.3c.7 0 1.2-.6 1.2-1.2ZM75.7 112.6c0-.7-.5-1.2-1.2-1.3-.7 0-1.3.5-1.3 1.3 0 .7.6 1.3 1.3 1.3.7 0 1.2-.6 1.2-1.3ZM80.6 112.6c0-.7-.5-1.2-1.2-1.2s-1.3.5-1.3 1.2.6 1.3 1.3 1.2c.7 0 1.2-.6 1.2-1.2ZM85.5 112.6c0-.7-.5-1.2-1.2-1.3-.7 0-1.3.5-1.3 1.2s.6 1.3 1.3 1.3c.7 0 1.2-.6 1.2-1.2ZM79.2 116.1c0-.7-.5-1.2-1.2-1.2s-1.3.5-1.3 1.2.6 1.3 1.3 1.2c.7 0 1.2-.6 1.2-1.2ZM84.8 116.2c0-.7-.5-1.2-1.2-1.3-.7 0-1.3.5-1.3 1.2s.6 1.3 1.3 1.3c.7 0 1.2-.6 1.2-1.2ZM87.6 119.4c0-.7-.5-1.2-1.2-1.3-.7 0-1.3.5-1.3 1.2s.6 1.3 1.3 1.3c.7 0 1.2-.6 1.2-1.2ZM79.4 82.5c0 .7-.5 1.2-1.2 1.2s-1.3-.5-1.3-1.2.6-1.3 1.3-1.2c.7 0 1.2.6 1.2 1.2ZM84.9 82.5c0 .7-.5 1.2-1.2 1.2s-1.3-.5-1.3-1.3c0-.7.6-1.3 1.3-1.2.7 0 1.2.6 1.2 1.3ZM87.7 79.3c0 .7-.5 1.2-1.2 1.2s-1.3-.5-1.3-1.3c0-.7.6-1.3 1.3-1.2.7 0 1.2.6 1.2 1.2ZM107.3 108.6c0-.7-.5-1.2-1.2-1.3-.7 0-1.3.5-1.3 1.3 0 .7.6 1.3 1.3 1.3.7 0 1.2-.6 1.2-1.3ZM72 94.7c0 .7-.5 1.2-1.2 1.3-.7 0-1.3-.5-1.3-1.3 0-.7.6-1.3 1.3-1.3.7 0 1.2.6 1.2 1.3ZM76.6 94.7c0 .7-.5 1.2-1.2 1.2s-1.3-.5-1.3-1.2.6-1.3 1.3-1.2c.7 0 1.2.6 1.2 1.2Z" class="st14"/><path d="M85.8 94.7c0 .7-.5 1.2-1.2 1.3-.7 0-1.3-.5-1.3-1.3 0-.7.6-1.3 1.3-1.3.7 0 1.2.6 1.2 1.3Z" class="st31"/><path d="M81.2 94.7c0 .7-.5 1.2-1.2 1.2s-1.3-.5-1.3-1.3c0-.7.6-1.3 1.3-1.2.7 0 1.2.6 1.2 1.3Z" class="st14"/><path d="M95.1 94.8c0 .6-.5 1.2-1.2 1.2s-1.3-.5-1.3-1.2.6-1.3 1.3-1.2c.7 0 1.2.6 1.2 1.2ZM87.9 94.7c0-.7.6-1.3 1.3-1.3.7 0 1.2.6 1.2 1.3 0 .7-.5 1.2-1.2 1.3-.7 0-1.3-.5-1.3-1.3ZM99.7 94.8c0 .7-.5 1.2-1.2 1.3-.7 0-1.3-.5-1.3-1.3 0-.7.6-1.3 1.3-1.3.7 0 1.2.6 1.2 1.3Z" class="st30"/><path d="M104.3 94.8c0 .7-.5 1.2-1.2 1.2s-1.3-.5-1.3-1.3c0-.7.6-1.3 1.3-1.2.7 0 1.2.6 1.2 1.3Z" class="st31"/><path d="M108.9 94.8c0 .7-.5 1.2-1.2 1.3-.7 0-1.3-.5-1.3-1.3 0-.7.6-1.3 1.3-1.3.7 0 1.2.6 1.2 1.3ZM73.5 90.3c0 .7-.5 1.2-1.2 1.3-.7 0-1.3-.5-1.3-1.3 0-.7.6-1.3 1.3-1.3.7 0 1.2.6 1.2 1.3ZM78.4 90.3c0 .7-.5 1.2-1.2 1.2s-1.3-.5-1.3-1.2.6-1.3 1.3-1.2c.7 0 1.2.6 1.2 1.2Z" class="st14"/><path d="M88 90.3c0 .7-.5 1.2-1.2 1.3-.7 0-1.3-.5-1.3-1.3 0-.7.6-1.3 1.3-1.3.7 0 1.2.6 1.2 1.3Z" class="st30"/><path d="M83.2 90.3c0 .7-.5 1.2-1.2 1.2s-1.3-.5-1.3-1.3c0-.7.6-1.3 1.3-1.2.7 0 1.2.6 1.2 1.3Z" class="st14"/><path d="M97.7 90.3c0 .6-.5 1.2-1.2 1.2s-1.3-.5-1.3-1.2.6-1.3 1.3-1.2c.7 0 1.2.6 1.2 1.2ZM90.4 90.3c0-.7.6-1.3 1.3-1.3.7 0 1.2.6 1.2 1.3 0 .7-.5 1.2-1.2 1.3-.7 0-1.3-.5-1.3-1.3ZM102.5 90.4c0 .7-.5 1.2-1.2 1.2s-1.3-.5-1.3-1.3c0-.7.6-1.3 1.3-1.2.7 0 1.2.6 1.2 1.3Z" class="st30"/><path d="M75.8 86.2c0 .7-.5 1.2-1.2 1.3-.7 0-1.3-.5-1.3-1.3 0-.7.6-1.3 1.3-1.3.7 0 1.2.6 1.2 1.3ZM80.7 86.2c0 .7-.5 1.2-1.2 1.2s-1.3-.5-1.3-1.2.6-1.3 1.3-1.2c.7 0 1.2.6 1.2 1.2Z" class="st14"/><path d="M90.5 86.3c0 .7-.5 1.2-1.2 1.3-.7 0-1.3-.5-1.3-1.3 0-.7.6-1.3 1.3-1.3.7 0 1.2.6 1.2 1.3Z" class="st30"/><path d="M85.6 86.2c0 .7-.5 1.2-1.2 1.2s-1.3-.5-1.3-1.3c0-.7.6-1.3 1.3-1.2.7 0 1.2.6 1.2 1.3Z" class="st14"/><path d="M100.3 86.3c0 .6-.5 1.2-1.2 1.2s-1.3-.5-1.3-1.2.6-1.3 1.3-1.2c.7 0 1.2.6 1.2 1.2ZM92.9 86.3c0-.7.6-1.3 1.3-1.3.7 0 1.2.6 1.2 1.3 0 .7-.5 1.2-1.2 1.3-.7 0-1.3-.5-1.3-1.3Z" class="st30"/><path d="M105.2 86.3c0 .7-.5 1.2-1.2 1.2s-1.3-.5-1.3-1.3c0-.7.6-1.3 1.3-1.2.7 0 1.2.6 1.2 1.3Z" class="st31"/><path d="M107.4 90.4c0 .7-.5 1.2-1.2 1.3-.7 0-1.3-.5-1.3-1.3 0-.7.6-1.3 1.3-1.3.7 0 1.2.6 1.2 1.3ZM125.3 112.8c-.2.6 0 1.3.7 1.6.6.3 1.4 0 1.6-.7.2-.7-.1-1.4-.8-1.6-.7-.2-1.4.1-1.6.7ZM111.4 122.1c.5.5 1.3.5 1.8 0s.5-1.4 0-1.8c-.5-.5-1.3-.4-1.8 0-.5.5-.4 1.3 0 1.8Z" class="st14"/><path d="M123.5 117c-.3.6 0 1.3.5 1.7.6.3 1.4 0 1.7-.5.3-.6 0-1.4-.6-1.7-.6-.3-1.3 0-1.7.5Z" class="st31"/><path d="M127.3 68.5c-.5-.5-1.3-.6-1.8-.2-.5.5-.6 1.2-.2 1.7.4.5 1.2.6 1.7.2.6-.4.6-1.2.2-1.8ZM122 68.6c-.5-.5-1.3-.6-1.8 0-.5.5-.5 1.3 0 1.8s1.3.5 1.8 0 .6-1.3 0-1.8ZM130.2 72.3c-.4-.6-1.2-.7-1.8-.3-.6.4-.7 1.2-.3 1.7.4.6 1.1.7 1.7.4.6-.4.8-1.2.4-1.8ZM120.7 73.3c-.5-.5-1.3-.6-1.8-.1s-.6 1.2-.2 1.7c.4.5 1.2.6 1.7.2.5-.4.7-1.2.2-1.8ZM119.1 89.1c-.7.2-1 .9-.8 1.6.2.6.9 1 1.5.9.7-.2 1.1-.9.9-1.6-.2-.7-.9-1.1-1.6-.8Z" class="st14"/><path d="M136.7 93.8c-.7 0-1.2.7-1.1 1.4 0 .7.6 1.2 1.3 1.1.7 0 1.2-.7 1.2-1.4s-.7-1.2-1.4-1.1ZM131.5 95.1c0 .7.7 1.2 1.4 1.1.7 0 1.2-.7 1.1-1.4 0-.7-.7-1.2-1.4-1.1-.7 0-1.2.7-1.1 1.4Z" class="st44"/><path d="M60.8 94.4c-.1.7.4 1.4 1 1.5.7 0 1.3-.4 1.4-1 .1-.7-.3-1.3-1-1.5-.7-.2-1.4.3-1.5 1ZM67.3 95c.1-.7-.3-1.3-1-1.4-.7-.1-1.3.3-1.5 1.1 0 .7.4 1.4 1.1 1.4.7 0 1.3-.4 1.4-1.1ZM111.6 82.3c.1-.4 0-.8-.3-1.2-.2-.3-.6-.4-.9-.5-.3 0-.7 0-.9.3-.4.3-.5.9-.4 1.3 0 .2.1.3.2.4.3.3.7.5 1.1.5.2 0 .5 0 .7-.3.2-.2.3-.4.4-.6ZM119.1 82.4c.3.6 1.1.8 1.7.5.6-.3.8-1.1.5-1.7-.3-.6-1.1-.8-1.7-.5-.6.4-.8 1.1-.5 1.7ZM106.8 82c-.5-.5-1.3-.5-1.8 0s-.5 1.3 0 1.7c.4.5 1.2.5 1.7 0s.5-1.3 0-1.8ZM121.3 120.8c-.3.6-.2 1.3.3 1.7.6.4 1.4.3 1.7-.3.4-.6.2-1.4-.4-1.7-.6-.4-1.4-.2-1.7.3ZM65.8 142.8c.6.3 1.4 0 1.7-.5.3-.6 0-1.4-.5-1.7-.6-.3-1.3-.1-1.7.5-.3.6-.1 1.4.5 1.7Z" class="st14"/><path d="M120.4 135.9c-.5-.5-1.2-.6-1.7-.2-.5.4-.6 1.2-.2 1.7.4.6 1.2.6 1.8.2.6-.5.6-1.3.2-1.8Z" class="st44"/><path d="M59.8 133.8c.5.5 1.4.4 1.8-.1.4-.5.3-1.3-.2-1.8-.5-.4-1.3-.4-1.8.1s-.4 1.3.1 1.8ZM64.3 130.6c-.4.5-.3 1.3.2 1.8.6.4 1.4.3 1.8-.3.4-.6.3-1.3-.3-1.7-.5-.4-1.3-.3-1.7.2ZM70.5 131.5c.6.4 1.4.2 1.7-.5.3-.6.1-1.4-.5-1.7-.6-.3-1.3-.1-1.7.4-.4.6-.2 1.4.4 1.7Z" class="st14"/><path d="M111 140.8c-.6.3-.8 1.1-.5 1.7.3.6 1.1.9 1.7.5.6-.3.9-1.1.5-1.7-.3-.6-1.1-.8-1.7-.5Z" class="st31"/><path d="M109 137.2c-.6.3-.8 1.1-.5 1.7.3.6 1.1.9 1.7.5.6-.3.9-1.1.5-1.7-.3-.6-1.1-.8-1.7-.5Z" class="st44"/><path d="M114.9 138.4c-.6.4-.7 1.1-.4 1.7.4.6 1.2.8 1.8.4.6-.4.7-1.2.3-1.8-.4-.6-1.2-.7-1.7-.3Z" class="st31"/><path d="M104.1 145.1c-.2-.7-.9-1-1.6-.8-.6.2-1 .9-.9 1.5.2.7.9 1.1 1.6.9.7-.2 1.1-.9.8-1.6ZM102 141.5c-.2-.7-.9-1.1-1.6-.9-.6.2-1.1.9-.9 1.5.2.7.9 1.1 1.6.9.7-.2 1.1-.9.9-1.6Z" class="st14"/><path d="M108.5 143.4c-.3-.6-1-.9-1.6-.7-.6.2-.9 1-.7 1.6.2.6 1 1 1.6.7.7-.3 1-1 .7-1.7Z" class="st31"/><path d="M99.6 146.3c-.2-.7-.8-1.1-1.5-1-.7.1-1.1.8-1 1.4.1.7.8 1.1 1.5 1 .7-.1 1.1-.8 1-1.5Z" class="st14"/><path d="M101.6 137.3c-.2-.7-.9-1-1.5-.8-.6.2-1 .9-.8 1.5.2.7.9 1.1 1.5.9.7-.2 1-.9.8-1.6Z" class="st44"/><path d="M74.2 122.7s0 .1-.1.2v.5c0 .4.2.8.7 1 0 0 .2 0 .2.1h.5c.4 0 .8-.3 1-.6.3-.6 0-1.4-.5-1.7-.6-.3-1.3-.2-1.7.4ZM101.8 128.6c-.3-.6-1-.9-1.6-.7-.6.3-1 .9-.7 1.6.2.7 1 1 1.6.7.7-.3 1-1 .7-1.6ZM112.9 134.9c-.6.4-.7 1.1-.4 1.7.4.6 1.2.8 1.8.4.6-.4.7-1.2.3-1.8-.4-.6-1.2-.7-1.7-.3Z" class="st14"/><path d="M49.8 118.9c.6-.3.9-1 .6-1.7-.3-.6-1-.9-1.7-.6-.6.3-.9 1-.6 1.7.3.7 1.1.9 1.7.6Z" class="st44"/><path d="M116.6 132.1c-.5.5-.6 1.2-.2 1.8.4.5 1.2.6 1.8.2.5-.5.6-1.3.2-1.8-.5-.5-1.3-.6-1.8-.1Z" class="st14"/><path d="M123.8 132.6c-.5-.5-1.3-.5-1.8 0s-.5 1.2 0 1.8c.5.5 1.3.5 1.8 0s.5-1.3 0-1.8Z" class="st31"/><path d="M115.2 124c-.5-.5-1.3-.5-1.7 0-.5.5-.5 1.2 0 1.7s1.3.5 1.8 0 .5-1.3 0-1.8ZM117.3 127.7c-.5-.5-1.3-.5-1.8 0s-.5 1.2 0 1.7 1.3.6 1.8 0c.5-.5.5-1.3 0-1.8ZM110 127c-.5.4-.7 1.2-.2 1.7.4.6 1.2.7 1.8.3.6-.4.7-1.2.2-1.8-.4-.5-1.2-.6-1.7-.2ZM59.2 116.6c-.3-.6-1.1-.8-1.7-.5-.6.3-.8 1.1-.5 1.7.3.6 1.1.8 1.7.4.6-.4.8-1.1.5-1.7Z" class="st14"/><path d="M48.2 126.7c.4.6 1.2.7 1.8.3.6-.4.7-1.2.3-1.7-.4-.6-1.1-.7-1.7-.4-.6.4-.8 1.2-.4 1.8Z" class="st44"/><path d="M64.9 121.8c.5.5 1.3.6 1.8 0 .5-.5.5-1.3 0-1.8s-1.2-.5-1.8 0c-.5.4-.6 1.3 0 1.8Z" class="st14"/><path d="M122.7 87.1c.7-.2 1-1 .7-1.6-.3-.7-1-1-1.7-.7-.6.3-.9 1-.7 1.6.2.6 1 .9 1.6.7ZM130.3 121.7c-.3.6-.1 1.3.5 1.7.6.3 1.4.1 1.7-.5.3-.6 0-1.4-.5-1.7-.6-.3-1.4 0-1.7.5ZM133.8 113.2c-.2.6.1 1.3.8 1.6.6.2 1.4-.1 1.6-.8.2-.7-.2-1.4-.9-1.6-.7-.2-1.4.2-1.5.8ZM129.5 113.3c-.2.6.1 1.4.8 1.6.7.2 1.4-.1 1.6-.8.2-.7-.1-1.4-.8-1.6-.7-.2-1.4.2-1.6.8ZM128.5 80.1c-.6.3-.9 1-.6 1.7.3.6 1 .9 1.7.6.6-.3.9-1 .6-1.7-.3-.7-1.1-.9-1.7-.6ZM133 80.2c-.6.3-.9 1-.7 1.6s1 .9 1.6.7c.6-.2 1-1 .7-1.6-.3-.7-1-1-1.7-.7ZM130.9 76c-.6.3-.8 1.1-.5 1.7.3.6 1.1.8 1.7.5.6-.3.9-1.1.5-1.7-.3-.6-1.1-.9-1.7-.5ZM123.3 104.2c0 .7.4 1.3 1.1 1.4.7.1 1.3-.4 1.4-1.1 0-.7-.4-1.3-1.1-1.4-.7 0-1.3.4-1.4 1.1ZM135.6 104.3c0 .7.4 1.3 1.1 1.4.7 0 1.3-.4 1.4-1.1 0-.7-.5-1.3-1.1-1.4-.7 0-1.3.5-1.3 1.1ZM134 104.6c0-.7-.4-1.4-1.1-1.4-.7 0-1.3.5-1.4 1.1 0 .7.4 1.3 1.1 1.4.7 0 1.3-.4 1.4-1.1ZM123.7 99.7c0 .7.5 1.2 1.2 1.3.7 0 1.3-.5 1.3-1.2s-.6-1.3-1.3-1.3c-.7 0-1.2.6-1.2 1.2ZM127.4 104.1c0 .7.4 1.3 1.1 1.4.7.1 1.3-.4 1.4-1.1.1-.7-.4-1.3-1.1-1.4-.7 0-1.3.4-1.4 1.1ZM127.9 125.6c-.4.6-.3 1.3.3 1.7.6.4 1.4.3 1.8-.3.4-.6.2-1.4-.4-1.8-.6-.4-1.4-.2-1.7.4ZM123 125.4c-.4.5-.3 1.3.2 1.8.5.4 1.3.3 1.8-.2.5-.6.3-1.4-.2-1.8-.6-.4-1.3-.3-1.7.3ZM122.5 90.7c.2.6.8 1 1.5.9.7-.1 1.1-.8.9-1.5-.2-.7-.9-1.1-1.6-.9-.7.2-1.1.9-.9 1.5ZM129.2 90.2c-.1-.7-.8-1.1-1.5-.9-.7.2-1.1.8-.9 1.5.1.6.8 1.1 1.5.9.7-.1 1.1-.8 1-1.5ZM136 89.1c-.7.2-1.1.8-1 1.5.1.7.8 1.1 1.4 1 .7-.1 1.1-.8 1-1.5-.1-.7-.8-1.1-1.5-1ZM130 94.9c0-.7-.7-1.2-1.4-1.1-.7.1-1.2.7-1.1 1.4 0 .7.7 1.1 1.4 1.1s1.2-.7 1.1-1.4ZM123.4 95.1c0 .7.7 1.1 1.4 1.1s1.2-.7 1.1-1.4c0-.7-.7-1.2-1.4-1.1-.7.1-1.1.7-1.1 1.4ZM120.3 93.7c-.7.1-1.1.8-1 1.4 0 .7.7 1.1 1.4 1.1s1.2-.7 1.1-1.4c-.1-.7-.8-1.2-1.5-1.1ZM125.9 81.2c-.3-.6-1.1-.9-1.7-.5-.6.3-.9 1.1-.6 1.7.3.6 1 .8 1.7.6.6-.3.9-1 .6-1.7ZM130.8 90.5c.2.7.8 1.1 1.5 1 .7-.1 1.2-.8 1-1.5-.2-.7-.8-1.1-1.5-1-.7.2-1.1.8-.9 1.5ZM127.8 85.6c-.2-.7-1-1-1.6-.7-.6.3-1 1-.7 1.6.2.6.9 1 1.6.7.7-.2 1-.9.8-1.6ZM112 86.4c.3.6 1.1.8 1.7.5.2 0 .3-.2.4-.3.3-.4.4-1 0-1.4-.2-.4-.6-.6-1-.7h-.2c-.2 0-.3 0-.5.2-.6.4-.7 1.1-.4 1.7ZM85.5 147.3c0-.7-.5-1.3-1.1-1.3-.7 0-1.3.4-1.4 1.1 0 .7.4 1.3 1.1 1.4.7 0 1.3-.5 1.4-1.1ZM76.3 128.5c-.3.6 0 1.4.7 1.7.7.3 1.4 0 1.6-.7.2-.7-.1-1.4-.7-1.6-.6-.2-1.3 0-1.6.7ZM90.1 131.2c0 .7.6 1.3 1.4 1.2.7 0 1.3-.7 1.2-1.4 0-.7-.7-1.2-1.3-1.1-.7 0-1.2.6-1.2 1.3ZM94.9 134.8c-.1-.7-.7-1.1-1.4-1.1s-1.1.7-1.1 1.4.7 1.2 1.4 1.1c.7 0 1.2-.7 1.1-1.4ZM101.5 118.1c-.5.3-.7 1.1-.4 1.7.4.6 1.1.8 1.7.4.6-.4.7-1.2.3-1.8-.4-.6-1.2-.7-1.7-.3ZM89.1 128.4c.7 0 1.3-.6 1.3-1.3v-.3c-.1-.6-.7-1-1.2-1-.7 0-1.3.5-1.3 1.2s.5 1.3 1.3 1.3ZM85.6 135.1c0-.7-.4-1.3-1.1-1.4-.7 0-1.3.4-1.4 1.1-.1.7.4 1.3 1.1 1.4.7 0 1.3-.4 1.4-1.1ZM80.8 125.8c.2-.7-.1-1.4-.8-1.6-.6-.2-1.4 0-1.6.7-.3.6 0 1.4.8 1.7.7.2 1.4 0 1.7-.8ZM84 127.9c.7.1 1.4-.4 1.5-1 0-.7-.4-1.3-1.1-1.4-.7-.1-1.3.3-1.5 1-.2.7.3 1.4 1 1.5ZM80.7 142.5c-.1.7.3 1.3 1 1.5.7.1 1.4-.4 1.5-1.1 0-.7-.4-1.3-1-1.4-.7-.1-1.3.3-1.5 1ZM76.9 142.9c.7.2 1.4-.2 1.6-.9.2-.7-.2-1.3-.9-1.5-.6-.2-1.3.2-1.6.9-.2.7.2 1.4.9 1.6ZM92.6 143.2c0-.7-.7-1.2-1.3-1.2-.7 0-1.2.6-1.2 1.3 0 .7.6 1.2 1.3 1.2.7 0 1.3-.7 1.2-1.3ZM97.3 142.6c-.1-.7-.8-1.1-1.4-1-.7.1-1.1.7-1.1 1.4s.7 1.2 1.5 1.1c.7-.1 1.2-.8 1.1-1.5ZM90.2 147.4c0-.7-.6-1.2-1.3-1.2-.7 0-1.2.5-1.3 1.2 0 .7.5 1.3 1.3 1.3.7 0 1.3-.6 1.3-1.3ZM99.5 133.7c-.2-.7-.9-1.1-1.5-.9-.6.2-1 .8-.9 1.5.1.7.8 1.1 1.5.9.7-.2 1.1-.9.9-1.5ZM77.2 138.8c.7.2 1.4-.2 1.6-.9.2-.7-.2-1.4-.8-1.5-.6-.2-1.3.2-1.5.8-.2.6.1 1.4.8 1.6ZM72.8 137.2c.6.3 1.4 0 1.6-.7.3-.7 0-1.4-.6-1.6-.6-.3-1.3 0-1.6.6-.3.6 0 1.4.6 1.7ZM71.6 139.7c-.3.6 0 1.4.7 1.7.7.3 1.4 0 1.6-.7.2-.6 0-1.4-.7-1.6-.6-.2-1.4 0-1.6.7ZM81.9 139.9c.7.1 1.3-.3 1.4-1 0-.7-.4-1.3-1-1.4-.6-.1-1.3.3-1.4 1-.1.7.3 1.3 1 1.5ZM111.9 112.8c-.3.6-.2 1.3.4 1.7.1 0 .3.2.5.2h.2c.4 0 .8-.2 1-.7.3-.5.2-1.1 0-1.4-.1-.1-.2-.2-.4-.3-.6-.3-1.4 0-1.7.5ZM116.5 112.8c-.3.6 0 1.3.5 1.7.6.3 1.4 0 1.7-.6.3-.7 0-1.4-.6-1.7-.6-.3-1.4 0-1.7.6ZM119.2 104.2c-.1.7.3 1.3 1 1.4.7.1 1.3-.3 1.5-1.1 0-.7-.4-1.4-1.1-1.4-.7 0-1.3.4-1.4 1.1ZM109.7 108.1c-.3.6 0 1.3.7 1.6.6.3 1.4 0 1.7-.6.3-.7 0-1.4-.7-1.6-.6-.2-1.4 0-1.6.7ZM117.6 104.6v-.3c0-.6-.5-1.1-1.1-1.2h-.3c-.6 0-1.1.5-1.2 1.1 0 .4 0 .8.3 1.1.2.2.4.3.6.4h.3c.6 0 1.1-.4 1.2-1.1ZM118.2 108.6c-.2.6.1 1.3.8 1.6.6.2 1.4-.1 1.6-.8.2-.7-.2-1.4-.8-1.6-.7-.2-1.4.2-1.5.8ZM116.3 109.5c.2-.7 0-1.4-.8-1.7h-.5c-.5 0-.9.4-1.1.8-.2.5 0 1 .3 1.3.1.1.3.2.4.3h.4c.5 0 1-.3 1.2-.9ZM114 99.6c0-.7-.6-1.3-1.3-1.2-.7 0-1.2.6-1.2 1.2s.5 1.2 1.2 1.2 1.3-.5 1.3-1.2ZM115.5 99.4v.2c0 .7.5 1.3 1.2 1.3h.5c.5-.2.8-.6.8-1.2s-.3-1-.8-1.2h-.5c-.6 0-1.1.5-1.2 1ZM111 104c-.1.6.3 1.3 1 1.5.7.2 1.4-.2 1.5-1 .1-.7-.3-1.4-1-1.5-.7 0-1.3.3-1.4 1ZM120 130.7c.5.5 1.3.5 1.8 0s.5-1.3 0-1.8-1.3-.4-1.8 0c-.5.5-.5 1.3 0 1.8ZM118.7 126.1c.5.5 1.3.4 1.8-.1s.4-1.3-.2-1.8c-.5-.4-1.3-.3-1.7.1-.4.5-.4 1.3.1 1.7ZM107.7 112c-.4.5-.2 1.3.3 1.7.5.4 1.3.3 1.8-.3.4-.6.2-1.4-.4-1.7-.6-.3-1.4-.2-1.7.3ZM85.8 104.1c0-.7-.5-1.2-1.2-1.3-.7 0-1.3.5-1.3 1.3 0 .7.6 1.3 1.3 1.3.7 0 1.2-.6 1.2-1.3ZM95 104.1c0-.6-.5-1.2-1.2-1.2s-1.3.5-1.3 1.2.6 1.3 1.3 1.2c.7 0 1.2-.6 1.2-1.2ZM87.9 104.1c0 .7.6 1.3 1.3 1.3.7 0 1.2-.6 1.2-1.3 0-.7-.5-1.3-1.2-1.3s-1.3.5-1.3 1.3ZM104.3 104.2c0-.7-.5-1.2-1.2-1.3-.7 0-1.3.5-1.3 1.2s.6 1.3 1.3 1.3c.7 0 1.2-.6 1.2-1.2ZM88 108.5c0-.7-.5-1.2-1.2-1.3-.7 0-1.3.5-1.3 1.3 0 .7.6 1.3 1.3 1.3.7 0 1.2-.6 1.2-1.3ZM97.6 108.6c0-.6-.5-1.2-1.2-1.2s-1.3.5-1.3 1.2.6 1.3 1.3 1.2c.7 0 1.2-.6 1.2-1.2ZM90.3 108.5c0 .7.6 1.3 1.3 1.3.7 0 1.2-.6 1.2-1.3 0-.7-.5-1.3-1.2-1.3s-1.3.5-1.3 1.3ZM102.5 108.6c0-.7-.5-1.2-1.2-1.3-.7 0-1.3.5-1.3 1.2s.6 1.3 1.3 1.3c.7 0 1.2-.6 1.2-1.2ZM90.4 112.6c0-.7-.5-1.2-1.2-1.3-.7 0-1.3.5-1.3 1.3 0 .7.6 1.3 1.3 1.3.7 0 1.2-.6 1.2-1.3ZM100.2 112.7c0-.6-.5-1.2-1.2-1.2s-1.3.5-1.3 1.2.6 1.3 1.3 1.2c.7 0 1.2-.6 1.2-1.2ZM92.8 112.6c0 .7.6 1.3 1.3 1.3.7 0 1.2-.6 1.2-1.3 0-.7-.5-1.3-1.2-1.3s-1.3.5-1.3 1.3ZM90.4 116.2c0-.7-.5-1.2-1.2-1.3-.7 0-1.3.5-1.3 1.3 0 .7.6 1.3 1.3 1.3.7 0 1.2-.6 1.2-1.3ZM101.5 116.2c0-.6-.5-1.2-1.2-1.2s-1.3.5-1.3 1.2.6 1.3 1.3 1.2c.7 0 1.2-.6 1.2-1.2ZM93.4 116.2c0 .7.6 1.3 1.3 1.3.7 0 1.2-.6 1.2-1.3 0-.7-.5-1.3-1.2-1.3s-1.3.5-1.3 1.3ZM93.1 119.1c0-.7-.5-1.2-1.2-1.3-.7 0-1.3.5-1.3 1.3 0 .7.6 1.3 1.3 1.3.7 0 1.2-.6 1.2-1.3ZM105.1 112.7c0-.7-.5-1.2-1.2-1.3-.7 0-1.3.5-1.3 1.2s.6 1.3 1.3 1.3c.7 0 1.2-.6 1.2-1.2ZM104.9 117.1c.5.5 1.3.5 1.8 0s.5-1.3 0-1.8-1.3-.5-1.7 0c-.5.4-.5 1.2 0 1.7ZM114.2 116.7c-.4.5-.3 1.3.3 1.7.6.4 1.3.3 1.8-.3.4-.6.2-1.4-.3-1.8-.6-.4-1.4-.2-1.7.3ZM121.1 118.1c.4-.6.1-1.4-.5-1.7-.6-.3-1.4-.1-1.7.5-.3.6-.1 1.3.4 1.7.6.4 1.4.2 1.7-.4ZM109.3 116.5c-.1.1-.2.3-.2.4v.5c0 .3.2.6.4.9.4.4.9.4 1.4.2.2 0 .3-.2.4-.3.5-.6.4-1.4-.1-1.8-.2-.2-.4-.2-.7-.3-.2 0-.5 0-.7.1-.1 0-.3.2-.4.3ZM116.4 120.6c-.4.5-.3 1.3.2 1.7.5.4 1.3.4 1.8-.2.5-.6.3-1.4-.2-1.8-.6-.4-1.3-.3-1.7.2ZM94.9 147.1c0-.7-.7-1.2-1.4-1.1-.7 0-1.2.6-1.1 1.3 0 .7.7 1.2 1.4 1.2s1.2-.7 1.1-1.4ZM105.9 119.9c-.4.4-.4 1.1 0 1.6.4.6 1.2.6 1.8.2.6-.5.6-1.3.2-1.8-.5-.5-1.3-.6-1.8-.1l-.2.2ZM113.5 94.8c-.1-.7-.8-1.1-1.5-1-.7.2-1.1.8-1 1.4.1.6.8 1.1 1.4 1 .7 0 1.2-.7 1-1.5ZM118.6 77.1c-.4-.6-1.2-.7-1.8-.2-.5.4-.6 1.2-.2 1.7.4.5 1.2.7 1.7.2.6-.4.7-1.2.3-1.8ZM112.1 90.1c-.3-.7-1-1-1.7-.7-.6.3-.9 1-.7 1.6.2.6.9.9 1.6.7.7-.2 1-1 .7-1.6ZM115.5 93.9c-.3.3-.4.7-.4 1.1.1.6.6 1 1.2 1.1h.3c.6 0 1.1-.6 1.1-1.2v-.3c-.1-.6-.6-1.1-1.2-1.1h-.3c-.3 0-.5.2-.6.4Z" class="st31"/><path d="M113.5 94.8c0-.7-.7-1.2-1.4-1.1-.7.1-1.2.7-1.1 1.4 0 .7.7 1.1 1.4 1.1s1.2-.7 1.1-1.4ZM114 90.6c.2.6.9 1 1.6.8.7-.2 1-.9.8-1.6-.3-.7-1-1-1.6-.8-.6.3-1 1-.7 1.6ZM109.8 85.8c-.4-.6-1.2-.7-1.8-.3-.6.4-.7 1.2-.3 1.7.3.5 1.1.7 1.7.4.6-.4.8-1.1.4-1.7ZM63.4 135c-.4.6-.3 1.4.3 1.8.6.4 1.4.2 1.8-.3.4-.6.2-1.4-.4-1.7-.6-.4-1.3-.3-1.7.3ZM61.4 138.5c-.4.6-.3 1.4.3 1.8.6.4 1.4.2 1.8-.4.4-.6.2-1.4-.4-1.7-.6-.4-1.3-.3-1.7.3ZM67.9 139.3c.6.3 1.4 0 1.7-.5.3-.6 0-1.4-.5-1.7-.6-.3-1.3-.1-1.7.5-.3.6-.1 1.4.5 1.7ZM57.8 137.4c.6.4 1.4.4 1.8-.2.4-.5.3-1.3-.2-1.7-.5-.4-1.3-.4-1.8.1s-.4 1.3.2 1.8ZM106.4 139.9c-.3-.6-1-.9-1.6-.7-.6.2-1 1-.7 1.6.2.7 1 1 1.6.7.7-.3 1-1 .7-1.6ZM78.4 146.2c-.2.7.3 1.4 1 1.5.7.1 1.4-.3 1.5-1 .1-.7-.3-1.3-1-1.5-.7-.1-1.3.3-1.5 1ZM97.1 138.5c-.1-.7-.8-1.1-1.4-1-.6.1-1.1.8-1 1.4 0 .7.7 1.2 1.4 1 .7-.1 1.1-.8 1-1.5ZM97.3 130.1c-.2-.7-.9-1.1-1.5-.9-.6.2-1.1.8-1 1.5.1.7.8 1.1 1.5 1 .7-.2 1.1-.8 1-1.5ZM83.3 122.3c-.2.7.2 1.4 1 1.5.7.1 1.4-.3 1.5-1 0-.7-.3-1.3-1-1.4-.6-.1-1.3.3-1.5 1ZM94.9 122.4c-.2-.7-.8-1.1-1.4-1-.6.1-1.1.8-1 1.4 0 .7.7 1.2 1.5 1 .7-.1 1.1-.8 1-1.5ZM72.1 126.2c-.4.6-.2 1.4.4 1.7.6.4 1.4.2 1.7-.5.3-.6 0-1.4-.5-1.7-.6-.3-1.3-.2-1.7.4ZM90.3 123c0-.7-.6-1.2-1.2-1.2s-1.2.5-1.2 1.2.5 1.3 1.2 1.3 1.3-.6 1.2-1.3ZM80.6 120.1c-.6-.3-1.3 0-1.6.7-.3.6 0 1.4.6 1.7.7.3 1.4 0 1.6-.7.2-.6 0-1.4-.7-1.6ZM110 133.4c-.4-.6-1.1-.8-1.7-.5-.6.3-.8 1.1-.5 1.7.3.6 1.1.8 1.7.5.6-.3.8-1.1.4-1.7ZM103.9 132.1c-.3-.6-1-.9-1.6-.7-.6.2-.9 1-.7 1.6.2.7 1 1 1.6.7.7-.3 1-1 .7-1.7ZM105.9 135.6c-.3-.6-1-.9-1.6-.6-.6.3-.9 1-.7 1.6.2.6 1 1 1.6.7.6-.3.9-1 .6-1.7ZM95.1 126.5c-.2-.7-.8-1.1-1.5-1-.7.1-1.1.7-1.1 1.4s.7 1.2 1.5 1c.7-.1 1.2-.8 1.1-1.5ZM99.7 125c-.3-.6-1-1-1.6-.7-.6.2-1 .9-.8 1.6.2.7.9 1 1.6.8.7-.3 1-1 .8-1.6ZM75 118.3c-.4.5-.3 1.3.3 1.8.6.4 1.4.2 1.7-.4.3-.6.2-1.4-.3-1.7-.5-.4-1.3-.2-1.7.3ZM99.2 120.8c-.3-.6-1-.9-1.6-.7-.6.2-.9.9-.7 1.6.2.7 1 1 1.6.7.7-.3 1-1 .7-1.7ZM108 123.4c-.5.4-.6 1.2-.2 1.8.4.6 1.2.7 1.8.2.6-.4.6-1.3.2-1.8-.5-.5-1.2-.6-1.8-.2ZM103.4 122.3c-.4-.1-.8-.1-1.1 0-.4.3-.7.7-.6 1.2 0 .2 0 .3.1.5.3.6 1.1.9 1.8.5.2 0 .3-.2.4-.3.3-.4.4-1 0-1.4-.2-.2-.4-.4-.6-.5ZM113.8 130.8c-.4-.5-1.2-.7-1.7-.2-.5.4-.7 1.1-.3 1.7.4.6 1.2.7 1.8.3.6-.4.7-1.2.2-1.8ZM106.3 129.4c-.6.3-.8 1.1-.5 1.7.3.6 1.1.8 1.7.5.6-.3.8-1.1.4-1.7-.4-.6-1.1-.8-1.7-.4ZM104.3 125.9c-.6.3-.8 1.1-.5 1.7.3.6 1.1.9 1.7.5.6-.4.8-1.2.5-1.7-.4-.6-1.1-.8-1.7-.4ZM43.4 90.2c.1-.7-.3-1.3-1-1.5-.7-.2-1.4.3-1.5 1-.1.7.3 1.4 1 1.5.7.1 1.3-.3 1.5-1ZM45.1 89.6c-.2.7.3 1.4 1 1.5.7.1 1.3-.3 1.5-1 .2-.7-.3-1.3-.9-1.5-.7-.2-1.4.3-1.5 1ZM55.9 90.5c.2-.6-.2-1.3-.9-1.5-.7-.2-1.4.2-1.6.9-.2.7.2 1.4.9 1.5.7.2 1.3-.2 1.5-.9ZM51.7 90.5c.1-.6-.3-1.3-.9-1.5-.7-.2-1.4.2-1.5.9-.2.7.3 1.4.9 1.5.7.1 1.4-.3 1.5-.9ZM70.7 87.1c.4-.5.2-1.3-.3-1.7-.5-.4-1.3-.3-1.8.3-.4.6-.2 1.4.4 1.7.6.3 1.4.2 1.7-.3Z" class="st31"/><path d="M46.5 84.9c-.2.7.1 1.4.8 1.6.7.2 1.4-.2 1.6-.8.2-.6-.1-1.4-.8-1.6-.7-.2-1.4.1-1.6.8Z" class="st44"/><path d="M42.5 99.3c0-.7-.5-1.2-1.2-1.3-.7 0-1.3.5-1.3 1.3 0 .7.6 1.3 1.3 1.3.7 0 1.2-.6 1.2-1.3ZM66.4 86.3c.3-.6.2-1.3-.4-1.7-.6-.4-1.4-.2-1.8.5 0 0 0 .2-.1.2v.5c0 .4.3.8.6 1 .6.3 1.4 0 1.7-.5ZM50.6 99.4c0-.7-.5-1.2-1.2-1.2s-1.3.5-1.3 1.2.6 1.3 1.3 1.2c.7 0 1.2-.6 1.2-1.2ZM54.7 99.4c0-.7-.5-1.2-1.2-1.3-.7 0-1.3.5-1.3 1.2s.6 1.3 1.3 1.3c.7 0 1.2-.6 1.2-1.2ZM55 94.9c0-.7-.4-1.3-1.1-1.4-.7-.1-1.3.4-1.4 1.1 0 .7.4 1.3 1.1 1.4.7 0 1.3-.4 1.4-1.1ZM42.7 94.8c0-.7-.4-1.3-1.1-1.4-.7 0-1.3.4-1.4 1.1 0 .7.5 1.3 1.1 1.4.7 0 1.3-.5 1.3-1.1ZM44.3 94.5c0 .7.4 1.4 1.1 1.4.7 0 1.3-.5 1.4-1.1 0-.7-.4-1.3-1.1-1.4-.7 0-1.3.4-1.4 1.1ZM68.6 90.9c.3-.6 0-1.3-.7-1.6-.6-.3-1.4 0-1.7.6-.3.7 0 1.4.7 1.6.6.2 1.4 0 1.6-.7ZM59.6 72.9c-.5-.5-1.3-.4-1.8.1s-.4 1.3.2 1.8c.6.4 1.3.3 1.7-.1.4-.5.4-1.3-.1-1.7ZM55.4 73.6c.4-.5.3-1.3-.2-1.8-.5-.4-1.3-.3-1.8.2-.5.6-.3 1.4.2 1.8.6.4 1.3.3 1.7-.3ZM57.4 86.2c.3-.6 0-1.3-.6-1.6-.6-.3-1.4 0-1.7.7-.3.7 0 1.4.7 1.6.6.2 1.4 0 1.6-.7ZM73.5 82c-.5-.5-1.3-.5-1.8 0s-.5 1.3 0 1.8 1.3.5 1.7 0c.5-.4.5-1.2 0-1.7ZM61.8 86.2c.3-.6 0-1.3-.5-1.7-.6-.3-1.4 0-1.7.6-.3.7 0 1.4.6 1.7.6.3 1.4 0 1.7-.6ZM61.9 78.4c.4-.5.3-1.3-.2-1.7-.5-.4-1.3-.4-1.8.2-.5.6-.3 1.4.2 1.8.6.4 1.3.3 1.7-.2ZM57.2 80.9c-.4.6-.2 1.4.5 1.7.6.3 1.4.1 1.7-.5.3-.6.1-1.3-.4-1.7-.6-.4-1.4-.2-1.7.4ZM72.5 77.5l-.2-.2c-.4-.4-1.1-.4-1.6 0-.6.5-.6 1.3-.2 1.8.5.5 1.3.6 1.8.1.5-.4.6-1.2.2-1.8ZM54.8 82.1c.3-.6 0-1.3-.5-1.7-.6-.3-1.4 0-1.7.5-.3.6 0 1.4.6 1.7.6.3 1.3 0 1.7-.5ZM47.4 123c.6-.3.8-1.1.5-1.7-.3-.6-1.1-.8-1.7-.5-.6.3-.9 1.1-.5 1.7.3.6 1.1.9 1.7.5ZM56.6 104.3c.1.7.8 1.2 1.5 1.1.7-.1 1.1-.8 1-1.4 0-.7-.7-1.1-1.4-1.1s-1.2.7-1.1 1.4ZM47.5 108.5c-.2-.7-.8-1.1-1.5-1-.7.1-1.2.8-1 1.5.2.7.8 1.1 1.5 1 .7-.2 1.1-.8.9-1.5ZM54.3 107.4c-.7.1-1.1.8-.9 1.5.2.7.9 1.1 1.5.9.7-.2 1.1-.9.9-1.5-.2-.6-.8-1-1.5-.9ZM49.2 108.8c.1.7.8 1.1 1.5.9.7-.2 1.1-.8.9-1.5-.1-.6-.8-1.1-1.5-.9-.7.1-1.1.8-1 1.5ZM41.6 105.3c.7 0 1.2-.7 1.1-1.4 0-.7-.6-1.2-1.3-1.1-.7 0-1.2.7-1.2 1.4s.7 1.2 1.4 1.1ZM48.4 104.1c0 .7.7 1.2 1.4 1.1.7-.1 1.2-.7 1.1-1.4 0-.7-.7-1.1-1.4-1.1s-1.2.7-1.1 1.4ZM52.5 104.2c0 .7.7 1.2 1.4 1.1.7-.1 1.1-.7 1.1-1.4s-.7-1.1-1.4-1.1-1.2.7-1.1 1.4ZM50.5 113.4c.2.7 1 1 1.6.7.6-.3 1-1 .7-1.6-.2-.6-.9-1-1.6-.7-.7.2-1 .9-.8 1.6ZM55.6 111.9c-.7.2-1 1-.7 1.6.3.7 1 1 1.7.7.6-.3.9-1 .7-1.6-.2-.6-1-.9-1.6-.7ZM66.3 112.6c-.3-.4-.7-.7-1.2-.6-.2 0-.3 0-.5.1-.6.3-.9 1.1-.5 1.8s1.2.9 1.8.5c.6-.4.7-1.1.4-1.7ZM43.6 114.4c.7-.2 1-.9.8-1.6-.2-.6-.9-1-1.5-.9-.7.2-1.1.9-.9 1.6.2.7.9 1.1 1.6.8ZM48 114.6c.6-.2 1-1 .8-1.6-.2-.6-.9-1-1.6-.8-.7.2-1 .9-.8 1.6.2.7.9 1.1 1.6.8ZM99.8 65.4c.2-.7-.2-1.4-.9-1.6s-1.4.2-1.5.9c-.2.7.2 1.3.9 1.5.6.2 1.3-.2 1.5-.9ZM68.3 65.6c.4.6 1.1.8 1.7.5.6-.3.8-1.1.5-1.7-.3-.6-1.1-.8-1.7-.5-.6.3-.8 1.1-.4 1.7ZM81.2 60.5c.1.7.8 1.1 1.4 1 .6-.1 1.1-.7 1-1.4 0-.7-.7-1.2-1.4-1-.7.1-1.2.8-1 1.5ZM88.1 63.8c0 .7.6 1.2 1.2 1.2.7 0 1.2-.5 1.3-1.2 0-.7-.5-1.3-1.2-1.3s-1.3.6-1.3 1.3ZM94.1 62.9c-.7 0-1.3.4-1.4 1.1 0 .7.4 1.3 1.1 1.4.7 0 1.3-.4 1.4-1.1.1-.7-.4-1.3-1.1-1.4ZM78.9 65.3c.2.7.9 1.1 1.5.9.6-.2 1-.8.9-1.5-.1-.7-.8-1.1-1.5-.9-.7.2-1.1.9-.9 1.5ZM90.4 59.7c0 .7.5 1.3 1.2 1.3s1.2-.5 1.3-1.2c0-.7-.4-1.3-1.2-1.4-.7 0-1.3.5-1.3 1.2ZM83.5 56c0-.7-.7-1.2-1.5-1.1-.7.1-1.2.8-1.1 1.5.1.7.8 1.1 1.4 1 .7-.1 1.1-.7 1.1-1.4ZM85.8 59.9c0 .7.6 1.2 1.3 1.2.7 0 1.2-.6 1.2-1.3 0-.7-.6-1.3-1.3-1.2-.7 0-1.2.7-1.2 1.3ZM71.9 59.2c.3.6 1 .9 1.6.7.6-.2 1-1 .7-1.6-.2-.7-1-1-1.6-.7-.7.3-1 1-.7 1.6ZM99.9 74.1c.3-.6 0-1.4-.8-1.7-.7-.2-1.4 0-1.7.8-.2.7.1 1.4.8 1.6.6.2 1.4 0 1.6-.7ZM102 70.6c.3-.6 0-1.4-.7-1.7-.7-.3-1.4 0-1.6.7-.2.7.1 1.4.7 1.6.6.2 1.3 0 1.6-.7ZM94.3 71.1c-.7-.1-1.4.4-1.5 1v.3c0 .6.5 1.1 1.1 1.2h.2c.5 0 .9-.3 1.2-.8v-.2c.2-.7-.3-1.4-1-1.5ZM101.1 60.2c-.7-.2-1.4.2-1.6.9-.2.7.2 1.4.8 1.5.6.2 1.3-.2 1.5-.8.2-.6-.1-1.4-.8-1.6ZM90.4 67.9c0 .7.5 1.3 1.2 1.3s1.3-.4 1.4-1.1c0-.7-.4-1.3-1.2-1.4-.7 0-1.3.5-1.4 1.2ZM85.7 68c0 .7.7 1.2 1.3 1.1.7 0 1.2-.6 1.2-1.3 0-.7-.6-1.3-1.4-1.2-.7 0-1.3.7-1.2 1.4ZM76.5 70.5c.3.6 1 .9 1.6.7.6-.3 1-.9.7-1.6-.2-.7-1-1-1.6-.7-.7.3-1 1-.7 1.7ZM78.6 74c.3.6 1 1 1.6.7.6-.2 1-.9.8-1.6-.2-.7-.9-1-1.6-.8-.7.3-1 1-.8 1.6ZM89.3 74.7c-.7 0-1.3.6-1.2 1.3 0 .7.6 1.2 1.2 1.2s1.2-.5 1.2-1.2-.5-1.3-1.2-1.3ZM103 79c-.6-.4-1.4-.2-1.7.4-.3.6-.2 1.4.3 1.7.5.4 1.3.2 1.7-.3.4-.5.3-1.3-.3-1.8ZM50.6 81.5c.3-.6 0-1.4-.6-1.7-.6-.3-1.4 0-1.7.6-.3.7 0 1.4.6 1.7.6.3 1.4 0 1.7-.6ZM126.2 76c-.6.4-.8 1.1-.4 1.7.3.6 1.1.8 1.7.5.6-.3.8-1.1.4-1.7-.4-.6-1.2-.8-1.8-.4ZM78.8 52.7c.2.7.8 1.1 1.5 1 .7-.1 1.1-.8 1-1.4-.1-.7-.8-1.1-1.5-1-.7.1-1.1.8-1 1.5ZM99.9 52.8c.2-.7-.3-1.4-1-1.5-.7-.1-1.4.3-1.5 1-.1.7.3 1.3 1 1.5.7.1 1.3-.3 1.5-1ZM52.7 77.4c.4-.6.2-1.3-.4-1.7-.6-.4-1.4-.2-1.8.4-.4.6-.2 1.4.4 1.7.6.3 1.4.1 1.7-.4ZM85.9 76.2c0-.7-.7-1.2-1.5-1-.7.1-1.1.8-1 1.5.2.7.8 1.1 1.4 1 .6-.1 1.1-.8 1-1.4ZM120.5 61.6c-.6-.4-1.4-.4-1.8.2-.4.5-.3 1.3.2 1.7.5.4 1.3.4 1.8-.1s.4-1.3-.2-1.8ZM115 64c.4-.6.3-1.4-.3-1.8-.6-.4-1.4-.2-1.8.3-.4.6-.2 1.4.4 1.7.6.4 1.3.3 1.7-.3ZM106.2 72.8c.4-.6.2-1.4-.4-1.7-.6-.4-1.4-.2-1.7.5-.3.6 0 1.4.5 1.7.6.3 1.3.2 1.7-.4ZM115.4 73.5c-.5-.5-1.3-.5-1.8 0s-.5 1.3 0 1.7c.5.5 1.2.5 1.8 0 .5-.5.5-1.3 0-1.8ZM117.5 69.8c-.5-.5-1.3-.5-1.8 0s-.4 1.3 0 1.7c.5.5 1.3.4 1.8 0 .5-.5.5-1.3 0-1.8ZM118.5 65.2c-.5-.5-1.4-.4-1.8.1-.4.5-.3 1.3.2 1.8.5.4 1.3.4 1.8-.1s.4-1.3-.1-1.8ZM114 68.4c.4-.5.3-1.3-.2-1.8-.6-.4-1.4-.3-1.8.3-.4.6-.3 1.3.3 1.7.5.4 1.3.3 1.7-.2ZM104.2 76.3c.4-.6.2-1.4-.5-1.8-.6-.4-1.4-.2-1.8.5-.3.5-.1 1.2.3 1.6 0 0 .1.1.2.1.6.3 1.3.2 1.7-.4ZM67.3 58.3c.6-.3.8-1.1.5-1.7-.3-.6-1.1-.9-1.7-.5-.6.3-.9 1.1-.5 1.7.3.6 1.1.8 1.7.5ZM108.8 55.8c.3-.6 0-1.4-.7-1.7-.7-.3-1.4 0-1.7.7-.2.6 0 1.4.7 1.6.6.2 1.3 0 1.6-.7ZM103.6 52.5c-.7-.2-1.4.2-1.6.9-.2.7.2 1.4.8 1.5.6.2 1.3-.1 1.6-.8.2-.6-.1-1.4-.8-1.6ZM101.4 56.1c-.7-.2-1.4.2-1.6.9-.2.7.2 1.3.9 1.5.7.2 1.3-.2 1.6-.9.2-.7-.2-1.4-.9-1.6ZM106.7 59.3c.3-.6 0-1.4-.7-1.7-.7-.3-1.4 0-1.6.7-.2.6 0 1.4.7 1.6.6.2 1.4 0 1.6-.7ZM63.1 75c.5.5 1.3.5 1.7 0 .5-.5.5-1.2 0-1.7s-1.3-.5-1.8 0-.5 1.3 0 1.8ZM74.1 73.1c.6-.3.8-1.1.5-1.7-.3-.6-1.1-.9-1.7-.5-.6.4-.8 1.2-.5 1.7.4.6 1.1.8 1.7.4ZM61.1 71.3c.5.5 1.3.5 1.8 0s.5-1.2 0-1.7-1.3-.6-1.8 0c-.5.5-.5 1.3 0 1.8ZM99.4 78.3c.3-.6 0-1.4-.6-1.7-.7-.3-1.4 0-1.6.7-.2.6 0 1.4.7 1.6.6.3 1.3 0 1.6-.7ZM76.1 76.6c.6-.3.8-1.1.5-1.7-.3-.6-1.1-.9-1.8-.5s-.9 1.2-.5 1.8c.4.6 1.1.7 1.7.4ZM58 63.2c.5.5 1.2.6 1.7.2.5-.4.6-1.2.2-1.7-.4-.5-1.2-.6-1.8-.2-.5.5-.6 1.3-.2 1.8ZM63.4 60.6c.6-.4.7-1.1.4-1.7-.4-.6-1.2-.8-1.8-.4-.6.4-.7 1.2-.3 1.8.4.6 1.2.7 1.7.3ZM69.4 61.8c.6-.3.8-1.1.5-1.7-.3-.6-1.1-.9-1.7-.5-.6.3-.9 1.1-.5 1.7.3.6 1.1.8 1.7.5ZM54.5 66.4c.5.5 1.3.5 1.8 0s.5-1.2 0-1.8c-.5-.5-1.3-.5-1.8 0s-.5 1.3 0 1.8ZM72.1 69.6c.6-.3.8-1.1.5-1.7-.3-.6-1.1-.8-1.7-.5-.6.3-.8 1.1-.5 1.7.4.6 1.1.8 1.7.4ZM61.7 66.9c.5-.5.6-1.2.2-1.8-.4-.5-1.2-.6-1.8-.2-.5.5-.6 1.3-.2 1.8.5.5 1.3.6 1.8.1ZM63.2 104c-.1-.7-.7-1.1-1.4-1.1s-1.2.7-1 1.5c.1.7.8 1.2 1.5 1.1.7-.2 1.1-.8 1-1.5ZM68.5 113.2c.4.6 1.2.7 1.8.3.6-.4.7-1.2.3-1.7-.3-.5-1.1-.7-1.7-.4-.6.3-.8 1.1-.4 1.7ZM66.9 99.4c0-.6-.5-1.2-1.2-1.2s-1.3.5-1.3 1.2.6 1.3 1.3 1.2c.7 0 1.2-.6 1.2-1.2ZM64.8 104.3c.1.7.8 1.1 1.5 1 .7-.2 1.1-.8 1-1.4-.1-.6-.8-1.1-1.4-1-.7 0-1.2.7-1 1.5ZM62.9 99.4c0-.7-.5-1.2-1.2-1.3-.7 0-1.3.5-1.3 1.3 0 .7.6 1.3 1.3 1.3.7 0 1.2-.6 1.2-1.3ZM90.5 82.5c0 .7-.5 1.2-1.2 1.3-.7 0-1.3-.5-1.3-1.3 0-.7.6-1.3 1.3-1.3.7 0 1.2.6 1.2 1.3ZM101.6 82.6c0 .6-.5 1.2-1.2 1.2s-1.3-.5-1.3-1.2.6-1.3 1.3-1.2c.7 0 1.2.6 1.2 1.2ZM93.5 82.6c0-.7.6-1.3 1.3-1.3.7 0 1.2.6 1.2 1.3 0 .7-.5 1.2-1.2 1.3-.7 0-1.3-.5-1.3-1.3ZM93.3 79.6c0 .7-.5 1.2-1.2 1.3-.7 0-1.3-.5-1.3-1.3 0-.7.6-1.3 1.3-1.3.7 0 1.2.6 1.2 1.3ZM71.6 117c.5.5 1.3.5 1.8 0s.5-1.3 0-1.7c-.4-.5-1.2-.5-1.7 0s-.5 1.3 0 1.8ZM123.6 77.1c-.4-.6-1.2-.7-1.7-.3-.6.4-.7 1.1-.4 1.7.4.6 1.1.7 1.7.4.6-.4.8-1.1.4-1.7ZM125.2 72.4c-.4-.6-1.2-.7-1.8-.2-.5.4-.6 1.2-.2 1.8.4.5 1.2.7 1.7.3.6-.4.7-1.2.3-1.8ZM113.4 77.2c-.5-.5-1.3-.6-1.8 0-.5.5-.5 1.3 0 1.8s1.2.5 1.8 0c.5-.4.6-1.3 0-1.8ZM107.8 77.5l-.2-.2c-.2-.1-.5-.2-.7-.2-.3 0-.6.2-.8.5-.3.4-.3.9-.1 1.3 0 .2.2.3.3.4.4.4 1.1.4 1.6 0l.2-.2c.5-.5.4-1.3-.2-1.8ZM116.4 81.1c-.4-.6-1.2-.7-1.8-.3-.6.4-.7 1.2-.3 1.7.4.6 1.1.7 1.7.4.6-.4.8-1.2.4-1.8ZM62.1 89.5c-.2.7 0 1.4.8 1.7.7.2 1.4-.1 1.6-.8.2-.6 0-1.4-.7-1.6-.6-.3-1.4 0-1.7.8ZM54.3 134.2c.5.5 1.3.5 1.8 0s.5-1.3 0-1.8-1.2-.5-1.8 0c-.5.5-.5 1.3 0 1.8ZM60.9 129.3c.5.5 1.3.5 1.8 0s.4-1.3 0-1.7c-.5-.5-1.3-.4-1.8 0-.5.5-.5 1.3 0 1.8ZM62.9 125.6c.5.5 1.3.5 1.8 0s.5-1.3 0-1.7c-.5-.5-1.2-.5-1.7 0s-.5 1.3 0 1.8ZM68.5 125.2c.6.5 1.4.4 1.8-.2.4-.6.3-1.3-.2-1.8-.5-.4-1.3-.4-1.8.2-.5.5-.4 1.3.2 1.8ZM66.5 128.8c.6.5 1.4.3 1.8-.2.4-.6.3-1.3-.2-1.7-.5-.4-1.3-.3-1.7.2-.4.5-.4 1.3.2 1.8ZM51 130.6c.5.5 1.3.6 1.8.2.5-.5.6-1.2.2-1.7-.4-.5-1.2-.6-1.7-.2-.5.4-.6 1.2-.2 1.8ZM61.9 118c.4.6 1.2.7 1.8.3.6-.4.7-1.2.3-1.7-.4-.6-1.1-.7-1.7-.4-.6.4-.8 1.2-.4 1.8ZM68.9 116.4c-.4-.5-1.2-.6-1.8-.2-.3.2-.4.5-.5.8 0 .2 0 .5.2.7 0 0 0 .2.2.2.5.6 1.3.6 1.8.2.5-.5.6-1.3.1-1.8ZM45.3 118.8c.6-.3.9-1 .7-1.6-.2-.6-1-.9-1.6-.7-.6.2-1 1-.7 1.6.3.7 1 1 1.7.7ZM56.3 130.4c.5.5 1.3.6 1.8 0 .5-.5.5-1.3 0-1.8s-1.3-.5-1.8 0-.6 1.3 0 1.8ZM57.6 125.8c.5.5 1.3.6 1.8.1s.6-1.2.2-1.7c-.4-.5-1.2-.6-1.7-.2-.5.4-.7 1.2-.2 1.8ZM53.1 126.7c.4.6 1.2.7 1.8.2.5-.4.6-1.2.2-1.8-.4-.5-1.2-.7-1.7-.3-.6.4-.7 1.2-.3 1.8ZM54.8 121.9c.4.6 1.2.7 1.7.3.6-.4.7-1.1.4-1.7-.4-.6-1.1-.7-1.7-.4-.6.4-.8 1.1-.4 1.7ZM52.4 117.8c.3.6 1.1.9 1.7.5.6-.3.9-1.1.6-1.7-.3-.6-1-.8-1.7-.6-.6.3-.9 1-.6 1.7ZM59.7 121.9c.4.6 1.2.7 1.8.2.5-.4.6-1.2.2-1.7-.4-.5-1.2-.6-1.7-.2-.6.4-.7 1.2-.3 1.8ZM70.5 121.5c.6.5 1.4.4 1.8-.1.4-.6.3-1.3-.2-1.8-.5-.4-1.3-.4-1.8.1s-.4 1.3.2 1.8Z" class="st31"/><g class="st16"><path d="m92.1 116.4-1.7-8.1c-1.2-5.7-3.7-9.6-7.5-11.7-3.2-1.8-7.2-2.2-12.1-1.4-4.7.8-8.1 2.4-10.2 4.7-1.8 2-2.5 4.1-2 6.4l.6 2.8h.4c.7-1.3 1.9-2.4 3.5-3.4 2.1-1.4 4.8-2.3 7.9-2.8 5.5-.9 8.7.7 9.6 5.1v.5l-3.3.6c-6.7 1.1-11.5 3-14.3 5.7-2.5 2.4-3.4 5.2-2.7 8.7.7 3.3 2.6 5.7 5.9 7.3 3.3 1.6 7.3 2 11.8 1.2l1.9-.3c4.3-.7 7.6-2.5 9.8-5.3 2.2-2.8 3-6.1 2.2-9.8Z" class="st18" style="mask:url(#mask-1)"/></g><path d="m90.3 113-1.6-8.4c-1.1-5.8-3.4-9.8-7-12-3-1.8-6.8-2.3-11.4-1.4-4.4.8-7.6 2.4-9.6 4.8-1.7 2-2.3 4.2-1.9 6.6l.5 2.9h.3c.7-1.3 1.8-2.4 3.3-3.5 2-1.4 4.5-2.4 7.4-2.9 5.2-1 8.2.8 9.1 5.2v.5l-3.1.6c-6.3 1.2-10.8 3.1-13.4 5.8-2.3 2.4-3.2 5.4-2.5 8.9.6 3.4 2.5 5.9 5.6 7.5 3.1 1.6 6.8 2.1 11.1 1.3l1.8-.3c4-.8 7.1-2.6 9.2-5.5 2.1-2.9 2.8-6.3 2.1-10.1Z" class="st3"/><g class="st46" style="mask:url(#mask-2)"><path d="m90.3 113-1.6-8.4c-1.1-5.8-3.4-9.8-7-12-3-1.8-6.8-2.3-11.4-1.4-4.4.8-7.6 2.4-9.6 4.8-1.7 2-2.3 4.2-1.9 6.6l.5 2.9h.3c.7-1.3 1.8-2.4 3.3-3.5 2-1.4 4.5-2.4 7.4-2.9 5.2-1 8.2.8 9.1 5.2v.5l-3.1.6c-6.3 1.2-10.8 3.1-13.4 5.8-2.3 2.4-3.2 5.4-2.5 8.9.6 3.4 2.5 5.9 5.6 7.5 3.1 1.6 6.8 2.1 11.1 1.3l1.8-.3c4-.8 7.1-2.6 9.2-5.5 2.1-2.9 2.8-6.3 2.1-10.1Z" class="st53"/></g><g class="st16"><path d="M145.4 105.2c.2 1.2-.1 2.3-1 3.5-.8 1.1-1.9 1.8-3.1 2l-19 3.7c-4.4.9-7-.4-7.6-3.8-.6-2.9.7-6.8 3.9-11.8l7.8-12.6c.6-1 1-1.8 1.4-2.6.5-1 .8-1.8 1-2.4l-19.1 3.7-.6-3c-.7-3.4 1.2-5.5 5.4-6.4l17.7-3.4c2.1-.4 3.8-.1 5.1.7 1 .7 1.7 1.8 1.9 3.1.6 3.3-.4 7-3 11.3l-7.7 12.4c-1.4 2.3-2.3 4.1-2.7 5.5l18.9-3.6.7 3.8Z" class="st18" style="mask:url(#mask-3)"/></g><g class="st16"><path d="M121.5 114.3c.3 1.1 0 2.3-.9 3.5-.8 1.1-1.8 1.8-3.1 2.1l-18.9 4.3c-4.4 1-7-.2-7.8-3.6-.6-2.9.5-6.8 3.5-11.9l7.3-12.8c.5-1 1-1.9 1.4-2.6.5-1 .8-1.8.9-2.5l-19 4.3-.7-2.9c-.8-3.4 1-5.6 5.2-6.5l17.6-4c2.1-.5 3.8-.3 5.1.6 1.1.7 1.7 1.7 2 3 .7 3.3-.1 7-2.6 11.4l-7.3 12.7c-1.3 2.3-2.1 4.2-2.6 5.6l18.8-4.3.8 3.7Z" class="st18" style="mask:url(#mask-4)"/></g><path d="M143.6 102.1c.2 1.2-.1 2.3-1 3.5-.8 1.1-1.9 1.8-3.1 2l-19 3.7c-4.4.9-7-.4-7.6-3.8-.6-2.9.7-6.8 3.9-11.8l7.8-12.6c.6-1 1-1.8 1.4-2.6.5-1 .8-1.8 1-2.4l-19.1 3.7-.6-3c-.7-3.4 1.2-5.5 5.4-6.4l17.7-3.4c2.1-.4 3.8-.1 5.1.7 1 .7 1.7 1.8 1.9 3.1.6 3.3-.4 7-3 11.3l-7.7 12.4c-1.4 2.3-2.3 4.1-2.7 5.5l18.9-3.6.7 3.8Z" class="st4"/><g class="st46" style="mask:url(#mask-5)"><path d="M143.6 102.1c.2 1.2-.1 2.3-1 3.5-.8 1.1-1.9 1.8-3.1 2l-19 3.7c-4.4.9-7-.4-7.6-3.8-.6-2.9.7-6.8 3.9-11.8l7.8-12.6c.6-1 1-1.8 1.4-2.6.5-1 .8-1.8 1-2.4l-19.1 3.7-.6-3c-.7-3.4 1.2-5.5 5.4-6.4l17.7-3.4c2.1-.4 3.8-.1 5.1.7 1 .7 1.7 1.8 1.9 3.1.6 3.3-.4 7-3 11.3l-7.7 12.4c-1.4 2.3-2.3 4.1-2.7 5.5l18.9-3.6.7 3.8Z" class="st53"/></g><path d="M119.7 111.2c.3 1.1 0 2.3-.9 3.5-.8 1.1-1.8 1.8-3.1 2.1l-18.9 4.3c-4.4 1-7-.2-7.7-3.6-.7-2.9.5-6.8 3.5-11.9l7.3-12.8c.5-1 1-1.9 1.4-2.6.5-1 .8-1.8.9-2.5l-19 4.3-.7-2.9c-.8-3.4 1-5.6 5.2-6.5l17.6-4c2.1-.5 3.8-.3 5.1.6 1.1.7 1.7 1.7 2 3 .7 3.3-.1 7-2.6 11.4l-7.3 12.7c-1.3 2.3-2.1 4.2-2.6 5.6l18.8-4.3.8 3.7Z" class="st4"/><g class="st46" style="mask:url(#mask-6)"><path d="M119.7 111.2c.3 1.1 0 2.3-.9 3.5-.8 1.1-1.8 1.8-3.1 2.1l-18.9 4.3c-4.4 1-7-.2-7.7-3.6-.7-2.9.5-6.8 3.5-11.9l7.3-12.8c.5-1 1-1.9 1.4-2.6.5-1 .8-1.8.9-2.5l-19 4.3-.7-2.9c-.8-3.4 1-5.6 5.2-6.5l17.6-4c2.1-.5 3.8-.3 5.1.6 1.1.7 1.7 1.7 2 3 .7 3.3-.1 7-2.6 11.4l-7.3 12.7c-1.3 2.3-2.1 4.2-2.6 5.6l18.8-4.3.8 3.7Z" class="st53"/></g><path d="M76.8 110.8c-3-.4-5.1 1.2-5.8 1.9-.6.7-.5 1.4-.5 1.5s-.1-1.3 1.4-1.8c1.9-.8 4.3 0 5.5.3 2.3.7 3.4 1.5 3.7 1.7.3.2.6.4.7.5 0 0 .2 0 0-.2-.5-1.4-2.4-3.5-5-3.8Z" style="fill:#eb2429"/><path d="M80 121.6s-.1 0-.2-.2c-.1 0-.3-.2-.4-.3-.4-.2-1-.6-1.9-1-1-.4-1.9-.8-2.9-1 0 0-.3 0-.6-.1 0 0 1 .9 2.3 1.7 0 0 .1 0 .2.1 1.4.7 3.4 1.5 3.8 1.2 0 0 0-.2-.2-.4Z" style="fill:url(#linear-gradient)"/><path d="M80.8 114c.5.3.9.6 1 .7h-.1s-.4-.3-.7-.5c-.3-.2-1.2-.8-3-1.5.2 0 .5 0 .9.2.3.1.7.3 1.1.5.3.1.5.3.8.4Z" style="fill:url(#linear-gradient1)"/><path d="M77.9 123.3h-.1c-.5 0-1.3-.2-2.1-.3-.5 0-1.8-.2-2.5-.2-.2 0-.7 0-1-.3-.4-.2-.7-.5-.7-.5-.4-.4-.9-1.1-.9-1.6 0-.4.1-.8.4-1.1.2-.2.3-.3.5-.3.4-.1 1-.2 1.3-.1.5 0 .9 0 1.3.1-.3-.1-.7-.2-1-.2h-1.4c-.3 0-.6.3-.9.6 0 0-.1.2-.2.3 0 .2-.1.4 0 .7 0 .4.5 1.2 1 1.6.2.2.5.4.8.6.4.2.8.3 1.1.3.7 0 2 .1 2.5.2.5 0 1 .2 1.5.2H78.3h-.2Z" style="fill:url(#linear-gradient2)"/><path d="M70.8 119.4c-.3.3-.4.6-.4 1.1 0 .4.5 1.1.9 1.6 0 0 .3.3.7.5.3.2.8.3 1 .3.7 0 2 .1 2.5.2.8.1 1.6.3 2.1.3h.1c-3.6-.6-6.5-4-6.7-4.2-.1 0-.3.2-.4.3Z" style="fill:url(#linear-gradient3)"/><path d="M80.1 121.5c-.3-.3-1-.7-2.5-1.4-1-.4-1.9-.8-2.9-1h-.8c.3 0 .5 0 .6.1 1 .2 1.9.6 2.9 1 .9.4 1.5.7 1.9 1 .1 0 .3.2.4.3l.2.2c.2.2.3.3.2.4-.4.4-2.4-.4-3.8-1.2 0 0-.1 0-.2-.1 1 .6 2.6 1.3 3.4 1.4h.6s0-.3-.3-.5Z" style="fill:url(#linear-gradient4)"/><path d="m81.9 117.1-.4-.4c-1.2-.8-2.8-1.5-2.8-1.5-2.1-.9-4.3-1.4-5.8-1.5-.9 0-1.5.1-1.9.3-.1 0-.2 0-.3.1-.2 0-.3.2-.5.3l-.2.2c-.3.3-.4.7-.4.7s-.5 1.4-.3 3 1.2 3.4 2.8 4.5c0 0 1.6 1.1 3.7 1.1 1.1 0 1.8-.2 2.1-.4 0 0 .1 0 .1-.1h-.1c-.1 0 0 0 0 0h-.7c-.4 0-1-.2-1.5-.2-.4 0-1.8-.2-2.5-.2-.3 0-.7-.1-1.1-.3-.3-.1-.5-.3-.8-.6-.5-.5-.9-1.2-1-1.7v-.7c0-.1.1-.2.2-.3.2-.3.6-.5.9-.6.3 0 .9-.1 1.4 0 .3 0 .7 0 1 .1h.8c1 .2 1.9.6 2.9 1 1.5.7 2.2 1.1 2.5 1.4.3.2.4.4.3.5.2-.1 1.1-1.1 1.5-2.2.5-1.2.5-2 .4-2 0 0 0-.2-.4-.7Z" style="fill:url(#radial-gradient1)"/><path d="M78 123.5h-.1c-.1 0 0 0 0 0h-.7c-.4 0-1-.2-1.5-.2-.4 0-1.8-.2-2.5-.2-.3 0-.7-.1-1.1-.3-.3-.1-.5-.3-.8-.6-.1-.1-.2-.2-.3-.4v-.1h-.2c.4.4.8.8 1.3 1.2 0 0 1.6 1.1 3.7 1.1 1.1 0 1.8-.2 2.1-.4 0 0 .1 0 .1-.1Z" style="fill:url(#linear-gradient5)"/><path d="M72.8 112c-.2 0-.3 0-.5.1h-.2c-.6.2-1 .6-1.3 1-.2.5-.2.9-.1.9s-.1-1.3 1.4-1.8c.8-.3 1.7-.4 2.6-.3v-.2H73Z" style="fill:url(#linear-gradient6)"/><path d="M74.5 112.1c-.8 0-1.7 0-2.6.3-1.5.6-1.4 1.8-1.4 1.8.1 0 .3-.1.4-.2.4-.1 1-.3 1.9-.3.8 0 1.8.2 2.8.4-.6-.7-.9-1.1-1-1.4-.1-.3-.2-.6-.2-.7Z" style="fill:url(#linear-gradient7)"/><path d="M77.9 123.3h-.1c-.5 0-1.3-.2-2.1-.3-.5 0-1.8-.2-2.5-.2h-.3c-.2 0-.3 0-.4-.1h-.2c.3.1.6.2.9.2.7 0 2 .1 2.5.2.5 0 1 .2 1.5.2H78h-.2Z" style="fill:url(#radial-gradient2)"/><path d="M71 112.8c-.1.2-.3.3-.3.5.2-.4.7-.8 1.2-1s0 0 .1 0h.2c.2 0 .3 0 .5-.1 0 0 .8-.2 2 0 .9 0 2.3.3 3.9 1 0 0 .2 0 .3.1.3.1.7.3 1.1.5.3.1.5.3.8.4.5.3.9.6 1 .7s0 0 0-.1c-.5-1.4-2.4-3.5-5-3.8-2.5-.4-4.5.8-5.4 1.6l-.4.4" style="fill:url(#radial-gradient3)"/><path d="M72.8 112Z" style="fill:url(#linear-gradient8)"/><path d="M78.6 112.9c-1.6-.6-2.9-.9-3.9-1h-.3s1.8.4 2.1.5c.3 0 2.1.5 2.1.5Z" style="fill:url(#linear-gradient9)"/><path d="M78.5 115.2c-2-.9-4.2-1.4-5.7-1.4-.9 0-1.5.1-1.9.3-.1 0-.2 0-.4.2h.1c.1 0 .2 0 .3-.1.4-.1 1-.3 1.9-.3 1.6 0 3.8.6 5.8 1.5 0 0 1.6.6 2.8 1.5-1.2-.9-2.9-1.6-2.9-1.6Z" style="fill:url(#linear-gradient10)"/><g class="st16"><path d="M63.9 120.7 52.4 92.2c-1.7-4.1-4.2-6.2-7.7-6.2s-2.8.3-4.4 1l-4.1 1.6c-.2 0-.4.4-.3.6l14.6 36.2c.9 2.3 1 4.3.3 5.8-.7 1.6-2.3 2.9-4.7 3.8-3.8 1.5-7.1 2.1-9.7 1.7h-.3l-.4.2c-.2 0-.4.4-.3.6l2.3 5.6c.8 2 2.6 3.4 5.4 3.9.8.2 1.7.2 2.6.2 2.1 0 4.4-.5 6.7-1.4 6.1-2.4 10.1-6.1 12-10.8 1.7-4.3 1.5-9.2-.7-14.5Z" class="st18" style="mask:url(#mask-7)"/></g><path d="M61.7 117.8 50.2 89.3c-1.7-4.1-4.2-6.2-7.7-6.2s-2.8.3-4.4 1L34 85.7c-.2 0-.4.4-.3.6l14.6 36.2c.9 2.3 1 4.3.3 5.8-.7 1.6-2.3 2.9-4.7 3.8-3.8 1.5-7.1 2.1-9.7 1.7h-.3l-.4.2c-.2 0-.4.4-.3.6l2.3 5.6c.8 2 2.6 3.4 5.4 3.9.8.2 1.7.2 2.6.2 2.1 0 4.4-.5 6.7-1.4 6.1-2.4 10.1-6.1 12-10.8 1.7-4.3 1.5-9.2-.7-14.5Z" class="st3"/><g class="st46" style="mask:url(#mask-8)"><path d="M61.7 117.8 50.2 89.3c-1.7-4.1-4.2-6.2-7.7-6.2s-2.8.3-4.4 1L34 85.7c-.2 0-.4.4-.3.6l14.6 36.2c.9 2.3 1 4.3.3 5.8-.7 1.6-2.3 2.9-4.7 3.8-3.8 1.5-7.1 2.1-9.7 1.7h-.3l-.4.2c-.2 0-.4.4-.3.6l2.3 5.6c.8 2 2.6 3.4 5.4 3.9.8.2 1.7.2 2.6.2 2.1 0 4.4-.5 6.7-1.4 6.1-2.4 10.1-6.1 12-10.8 1.7-4.3 1.5-9.2-.7-14.5Z" class="st53"/></g><path d="M201 92.6c-2.4 0-4.6-.5-6.7-1.4-3.5-1.6-5.7-4.3-6.6-8-.9-3.8-.2-7.2 2.2-10 2.6-3.1 7.2-5.4 13.8-7l2.3-.6c-.8-2.8-2.5-4.1-5.3-4.1s-1.9.1-3 .4c-2.8.7-5.2 1.8-7 3.2-1.4 1.1-2.4 2.2-2.9 3.3l-.2.4-1.7.4-.9-3.8c-.6-2.6 0-5.2 1.7-7.6 2-2.7 5.4-4.6 10-5.8 1.9-.5 3.7-.7 5.4-.7 2.5 0 4.8.5 6.9 1.6 4 2.1 6.8 6.3 8.3 12.4l2.1 8.4c1 4.1.4 7.8-1.7 11.1s-5.3 5.5-9.6 6.5l-1.8.5c-1.8.5-3.6.7-5.3.7Zm4.8-18.1c-3.1.8-5.3 1.7-6.4 2.7-.8.8-1 1.7-.7 3 .4 1.8 1.6 2.7 3.6 2.7.8 0 1.7-.1 2.7-.4 1.7-.4 2.9-1.1 3.5-2.1.6-.9.7-2.2.3-3.9l-.6-2.6-2.4.6Z" class="st50"/><path d="M202.2 52.4c2.4 0 4.5.5 6.4 1.5 3.8 2 6.4 5.9 7.9 11.8l2.1 8.4c.9 3.8.4 7.3-1.5 10.4-2 3.1-5 5.1-9.1 6.1l-1.8.5c-1.8.4-3.5.7-5.1.7s-4.4-.4-6.3-1.3c-3.2-1.5-5.3-3.9-6.1-7.3-.9-3.5-.2-6.6 2-9.2 2.5-2.9 6.9-5.2 13.3-6.7l3.2-.8V66c-1-3.5-3.1-5.2-6.4-5.2s-2 .1-3.2.4c-2.9.7-5.4 1.9-7.4 3.4-1.5 1.1-2.6 2.4-3.2 3.7h-.3l-.7-2.8c-.6-2.3 0-4.6 1.6-6.8 1.9-2.5 5.1-4.3 9.5-5.4 1.8-.5 3.6-.7 5.2-.7m.1 31.2c.8 0 1.8-.1 2.9-.4 3.9-1 5.4-3.3 4.4-7.1l-.9-3.5-3.3.8c-3.3.8-5.5 1.8-6.8 2.9-1 1-1.4 2.3-1 3.9.6 2.3 2.1 3.4 4.5 3.4m0-33.2c-1.8 0-3.7.2-5.6.7-4.8 1.2-8.4 3.2-10.5 6.1-2 2.6-2.6 5.4-1.9 8.3l.7 2.9.4 1.8 1.8-.4h.3l.9-.3.4-.8c.5-1 1.3-2 2.6-2.9 1.8-1.4 4-2.4 6.7-3.1 1-.3 2-.4 2.8-.4 2 0 3.3.8 4.1 2.5l-1.3.3c-6.8 1.7-11.5 4.1-14.3 7.3-2.6 3.1-3.5 6.7-2.4 10.9 1 3.9 3.4 6.8 7.1 8.6 2.2 1 4.5 1.5 7.1 1.5s3.6-.2 5.5-.7l1.8-.5c4.5-1.1 8-3.4 10.2-6.9 2.2-3.5 2.8-7.5 1.8-11.8l-2.1-8.4c-1.6-6.4-4.5-10.8-8.8-13-2.2-1.1-4.6-1.7-7.3-1.7Zm-2.1 27.3c.7-.6 2.3-1.5 5.9-2.4l1.4-.4.4 1.7c.3 1.4.3 2.4-.2 3.1-.5.7-1.4 1.3-2.9 1.7-.9.2-1.7.3-2.4.3-1.9 0-2.4-.8-2.7-2-.3-1.2 0-1.7.5-2.1Z" class="st43"/><g class="st46" style="mask:url(#mask-9)"><path d="M218.5 74.1c.9 3.8.4 7.3-1.5 10.4-2 3.1-5 5.1-9.1 6.1l-1.8.5c-4.3 1.1-8.1.8-11.4-.6-3.2-1.5-5.3-3.9-6.1-7.3-.9-3.5-.2-6.6 2-9.2 2.5-2.9 6.9-5.2 13.3-6.7l3.2-.8V66c-1.2-4.5-4.4-6.1-9.6-4.8-2.9.7-5.4 1.9-7.4 3.4-1.5 1.1-2.6 2.4-3.2 3.7h-.3l-.7-2.8c-.6-2.3 0-4.6 1.6-6.8 1.9-2.5 5.1-4.3 9.5-5.4 4.6-1.1 8.4-.9 11.6.8 3.8 2 6.4 5.9 7.9 11.8l2.1 8.4Zm-9.7-1.3-3.3.8c-3.3.8-5.5 1.8-6.8 2.9-1 1-1.4 2.3-1 3.9.7 3 3.2 4 7.4 3 3.9-1 5.4-3.3 4.4-7.1l-.9-3.5Z" class="st53"/></g><path d="M228.7 83.7c-1.6 0-3.2-.3-4.7-.7-2.8-1-4.5-2.6-5-4.8l-1.2-4.9 1.6-.4.3.2c1.6.9 3.6 1.4 5.8 1.4s3.2-.2 5-.6c5.5-1.3 5-3.6 4.8-4.3-.2-.7-.6-1.2-1.3-1.4-.6-.2-1.4-.3-2.5-.3s-2.1 0-3.5.2c-.9 0-1.9.1-2.7.1-6.5 0-10.5-2.6-11.7-7.6-.9-3.7-.1-7.2 2.3-10.4 2.4-3.3 6-5.5 10.6-6.6 1.6-.4 3.2-.6 4.6-.6s3.7.4 5.3 1.1c2.4 1.1 3.8 2.8 4.3 5.1l1 4.3-1.6.4-.3-.2c-1.5-.9-3.3-1.4-5.5-1.4s-3 .2-4.7.6c-6.2 1.5-5.7 3.8-5.5 4.5.1.6.5.9 1.1 1 .4 0 1 .2 2.4.2s2.1 0 3.5-.1h2.2c7 0 11.2 2.8 12.5 8.2 1 4.3.4 7.8-1.7 10.6-2.1 2.7-5.8 4.8-10.9 6-1.6.4-3.1.6-4.5.6Z" class="st50"/><path d="M231.2 43.9c1.8 0 3.4.3 4.9 1 2.1 1 3.4 2.5 3.8 4.4l.8 3.4h-.3c-1.6-.9-3.6-1.4-6-1.4-1.5 0-3.2.2-5 .6-4.7 1.1-6.8 3-6.2 5.6.2.9.8 1.5 1.8 1.7.6.1 1.4.2 2.6.2s2.1 0 3.5-.1h2.1c6.6 0 10.4 2.5 11.6 7.5 1.9 8-2.1 13.2-12 15.5-1.5.4-2.9.5-4.3.5s-3-.2-4.4-.7c-2.5-.9-3.9-2.3-4.4-4.1l-1-4h.3c1.8.9 3.8 1.4 6.2 1.4s3.3-.2 5.2-.7c4.3-1 6.1-2.8 5.5-5.4-.3-1.1-.9-1.7-1.9-2-.7-.2-1.6-.3-2.8-.3s-2.2 0-3.6.2c-.9 0-1.8.1-2.6.1-6.1 0-9.7-2.3-10.8-6.9-.8-3.4-.1-6.6 2.1-9.6 2.3-3.1 5.6-5.2 10.1-6.3 1.6-.4 3.1-.6 4.4-.6m.4-1.8c-1.5 0-3.1.2-4.8.6-4.9 1.2-8.6 3.5-11.1 7-2.5 3.4-3.3 7.2-2.4 11.1.9 3.8 3.8 8.3 12.6 8.3s1.8 0 2.8-.1c1.3-.1 2.5-.2 3.4-.2s1.9.1 2.2.2c.4.1.6.3.7.7.1.6.5 2.1-4.2 3.2-1.7.4-3.4.6-4.8.6-2.1 0-3.8-.4-5.3-1.3l-.6-.4-.7.2h-.3l-1.8.5.4 1.8 1 4c.6 2.5 2.5 4.3 5.6 5.4 1.6.5 3.2.8 5 .8s3.1-.2 4.7-.6c5.3-1.3 9.2-3.4 11.4-6.3 2.3-3 3-6.9 1.9-11.4-1-4.1-4.1-8.9-13.4-8.9h-2.2c-1.3 0-2.5.1-3.4.1-1.3 0-1.9-.1-2.2-.2-.4 0-.4-.2-.4-.3-.3-1.4 1.3-2.6 4.8-3.4 1.6-.4 3.2-.6 4.5-.6 2 0 3.6.4 5 1.2l.7.4.7-.2h.3l1.8-.5-.4-1.8-.8-3.4c-.6-2.5-2.2-4.5-4.9-5.7-1.7-.8-3.6-1.2-5.7-1.2Z" class="st43"/><g class="st46" style="mask:url(#mask-10)"><path d="M233 82.2c-3.2.8-6.1.7-8.7-.2-2.5-.9-3.9-2.3-4.4-4.1l-1-4h.3c2.9 1.6 6.8 1.9 11.5.7 4.3-1 6.1-2.8 5.5-5.4-.3-1.1-.9-1.7-1.9-2-1.2-.4-3.3-.4-6.4 0-7.7.7-12.1-1.5-13.4-6.8-.8-3.4-.1-6.6 2.1-9.6 2.3-3.1 5.6-5.2 10.1-6.3 3.7-.9 6.8-.7 9.3.4 2.1 1 3.4 2.5 3.8 4.4l.8 3.4h-.3c-2.7-1.6-6.4-1.9-10.9-.8-4.7 1.1-6.8 3-6.2 5.6.2.9.8 1.5 1.8 1.7 1 .3 3.1.3 6.1 0 7.8-.6 12.4 1.9 13.7 7.4 1.9 8-2.1 13.2-12 15.5Z" class="st53"/></g><path d="M252.3 77.5c-2.2 0-5-.9-6.3-5.4l-12.5-43.5 3.7-1.1c1.1-.3 2.1-.5 3.1-.5 2.1 0 5 .9 6.2 5.1l2.3 7.9c.4-.7.8-1.3 1.4-2 1.4-1.7 3-2.8 4.7-3.3 2.2-.6 4.2-.9 6.1-.9 7.1 0 12 4.5 14.6 13.3l6.4 22.3-3.9 1.1c-1 .3-1.9.4-2.8.4-2.1 0-5-.9-6.2-5.4l-4.3-14.9c-.7-2.6-1.9-4.4-3.5-5.3-.8-.5-1.7-.7-2.7-.7s-1.5.1-2.3.3c-1.5.4-2.5 1.3-3.2 2.7-.9 1.8-1 4-.2 6.7l6.2 21.6-3.9 1.1c-1 .3-2 .4-2.8.4Z" class="st50"/><path d="M240.3 28c2.7 0 4.4 1.5 5.3 4.4l3 10.4c.4-1.5 1.2-2.9 2.2-4.2 1.3-1.5 2.7-2.5 4.3-3 2.1-.6 4.1-.9 5.9-.9 6.7 0 11.3 4.2 13.7 12.6l6.1 21.4-3 .9c-.9.3-1.8.4-2.5.4-2.7 0-4.5-1.6-5.4-4.7l-4.3-14.9c-.8-2.8-2.1-4.8-3.9-5.8-1-.5-2-.8-3.2-.8-.8 0-1.6.1-2.5.4-1.7.5-3 1.5-3.8 3.1-1 2-1.2 4.4-.3 7.3l5.9 20.7-3 .9c-.9.3-1.8.4-2.6.4-2.7 0-4.5-1.6-5.4-4.7l-12.2-42.6 2.8-.8c1-.3 2-.4 2.8-.4m.1-1.9c-1 0-2.1.2-3.3.5l-2.8.8-1.8.5.5 1.8 12.2 42.6c1.4 5 4.7 6.1 7.2 6.1s2-.2 3.1-.5l3-.9 1.8-.5-.5-1.8-5.9-20.7c-.7-2.4-.6-4.4.2-5.9.6-1.1 1.4-1.8 2.6-2.2.7-.2 1.4-.3 2-.3s1.6.2 2.3.6c1.4.8 2.4 2.4 3.1 4.7l4.3 14.9c1.4 5 4.7 6.1 7.1 6.1s2-.2 3.1-.5l3-.9 1.8-.5-.5-1.8-6.1-21.4C274 37.7 268.8 33 261.3 33c-2 0-4.1.3-6.4 1-1.9.6-3.7 1.8-5.2 3.6-.1.1-.2.2-.3.4l-1.7-6c-1.1-3.7-3.6-5.8-7.1-5.8Z" class="st43"/><g class="st46" style="mask:url(#mask-11)"><path d="M277.8 69.6c-4.1 1.2-6.7-.3-7.9-4.3l-4.3-14.9c-.8-2.8-2.1-4.8-3.9-5.8-1.6-.9-3.5-1-5.7-.4-1.7.5-3 1.5-3.8 3.1-1 2-1.2 4.4-.3 7.3l5.9 20.7-3 .9c-4.1 1.2-6.8-.2-8-4.3l-12.2-42.6 2.8-.8c4.3-1.2 7 0 8.1 4l3 10.4c.4-1.5 1.2-2.9 2.2-4.2 1.3-1.5 2.7-2.5 4.3-3 10-2.9 16.5 1 19.5 11.7l6.1 21.4-3 .9Z" class="st53"/></g></g></g></svg>
