<svg xmlns="http://www.w3.org/2000/svg" viewBox="0 0 1534 432">
  <style>.st0{fill:#f48120}.st1{fill:#9ab93c}.st2{fill:#fff}</style>
  <path class="st0" d="M1406 374.3h-193.9c-38.5 0-70.1-31.5-70.1-70.1V128.8c0-38.5 31.5-70.1 70.1-70.1H1406c38.5 0 70.1 31.5 70.1 70.1v175.4c0 38.5-31.5 70.1-70.1 70.1zM315.4 176.3c2.2-14.5 5.1-27.5 8.7-39.2 3.6-11.6 9.5-23.9 17.8-36.9s18.4-23.4 30.3-31.1c11.8-7.7 26.1-11.6 42.7-11.6 6.2 0 13.7.7 22.5 2-.6 2.9-1.1 7.3-1.4 13.2-.4 6.1-.5 10.4-.5 13.2V95l-.5 18.6-6.1 2c-7.5-3.4-14.5-6.2-21.3-8.6-6.8-2.2-13.4-3.3-19.9-3.3-7 0-12.2.3-15.8.6-3.6.5-6.3 1.5-8.4 3.3-2 1.9-3.7 3.4-5.2 4.9-1.4 1.4-2.1 3.2-2.1 5.4 0 3.9 1.2 9.2 3.7 16 2.5 6.7 8.1 19.9 17 39.5v2.9l1.6 21.4v117.6l2.1 59h-68.9c.8-5.6 1.4-12.8 1.6-21.5.2-8.9.4-17 .4-24.5l1.6-89.5v-41l.1-21.5z"/>
  <path class="st0" d="M583.9 166.2s-166.2-101.9-370.1 116l1.1 51s158-245.5 369-167"/>
  <path class="st0" d="M399.5 299.9c-6-15.9-9.2-31-9.4-45.5-.2-14.5 2.9-28.4 9.2-41.5 6.5-13.2 16.4-25 29.7-35.4 13.4-10.5 27.4-17.9 42-22.4 15.8-4.9 32.4-7.4 49.7-7.6 17.2-.2 32.5 2.9 45.7 9.2 13.2 6.3 24.9 15.1 35 26.5 10.1 11.3 17.7 23.8 23 37.5 12.5 32.4 12.3 62-.4 88.5-12.7 26.6-37 45.3-72.7 56.3-34.5 10.6-65.5 10-92.9-1.7-27.4-11.8-47-33-58.9-63.9m58.5-54.7l10.3 32.2c8.2 21.4 18.5 39.7 30.7 55 12.3 15.3 27.3 20.3 45 14.8 11.8-3.5 19-10 21.9-19.3 2.9-9.2 3.8-18.7 2.8-28.7s-3.3-21.3-6.8-34-6.6-22.7-9.3-29.9c-1.3-3.3-2.9-7-4.9-11.1-2-4-3.6-7-4.7-9.2-5.1-13.3-13.3-24.8-24.5-34.6-11.2-9.7-23.8-12.4-37.9-8.2-14.3 4.4-22.7 13.8-25.2 28.2-2.5 14.4-1.6 29.3 2.6 44.8M639.3 153.9l36.5-2.6 32 4-1.5 32c10.2-11.8 21.5-21.1 33.9-27.8 12.5-6.7 26.1-10.2 40.9-10.2 24 0 42.1 6.1 54.3 18.1 12.4 12.1 19.3 22.8 21 32 1.6 9.2 2.4 22.2 2.4 39v127h-72.7l2.2-23 2.8-50.9v-32.9c0-22.3-2-39.7-6.1-52.3-4.2-12.6-15.7-18.9-34.5-18.9-19.9 0-32 7.1-36.4 21.5-4.5 14.3-6.7 33.5-6.7 57.6l2.8 98.9h-70.9c0-3.9.1-7.7.4-11.6.2-3.8.5-7.6.8-11.5v-55.1l1.6-50.4v-17.4l-2.8-56.5v-9zM939.3 260.4l2 25.1c0 6.5 2.4 14.2 7.3 23.1 4.9 8.9 10.5 15.8 16.6 20.5 6 4.8 12.6 8.1 19.7 10.1 7 2.1 15.1 3.1 23.9 3.1 10.2 0 20.2-1.8 30-5.3 9.9-3.6 19.2-8.4 27.6-14.7l5.9 4-10.9 24.6c-20.9 13.2-44.4 19.8-70.5 19.8-21 0-39-2.4-53.7-7-14.8-4.7-28.1-12.9-39.8-24.4-11.7-11.7-19.6-24.4-23.9-38.4-4.3-14.1-6.5-29.3-6.5-46 0-31.5 10.1-57.1 30.3-76.9 20.4-19.9 47.8-29.8 82.7-29.8 36.2 0 62.1 10 77.7 30 15.6 20 23.4 47.3 23.4 82H939.3zm76.6-21.1c-.3-1.2-.5-2.9-.5-5.2v-4.9c0-14.1-2.5-28-7.5-41.5-5-13.6-13.8-20.3-26.8-20.3-15.9 0-26.8 7.7-32.9 23-6 15.3-8.8 31.6-8.8 49h76.5z"/>
  <path class="st1" d="M209.9 332.8c-13.1 13.1-24.6 22.3-34.3 28-9.9 5.6-22.9 8.4-39.2 8.4-13.7 0-26.3-2.1-37.5-6.4-11.3-4.3-20-10.2-26.3-18.1-6.2-7.8-10.2-16.4-11.9-25.6-1.8-9.3-2.7-18.9-2.7-28.9V153.8l39.3-2.6h33.3c-2 17.1-3.4 36.5-4 58.3-.6 21.7-1 42.7-1 62.7 0 9.5.2 17 .8 22.2.4 5.2 2 10.2 4.7 15 3.2 7.5 7.7 13.2 13.5 17.2 5.8 4.1 12.9 6.1 21.5 6.1 19.4 0 31.3-7.5 35.9-22.5 4.6-15.1 6.9-34 6.9-57l-2.7-99.4 35.2-2.6h35.2c0 5.8-.4 15.5-1.1 29.3-.8 13.8-1.2 21.2-1.2 22.1v94.5l2.3 58.9v9.1h-67.9l1.2-32.3z"/>
  <g>
    <path class="st2" d="M1377.6 237.9h29.8l-3.7 24c-.5 3-1.1 5.5-1.8 7.7-.8 2.1-1.9 3.9-3.5 5.2-1.6 1.4-3.7 2.4-6.4 3-2.7.7-6.2 1-10.5 1-6.9 0-12.7-.7-17.2-2.2-4.5-1.5-8.1-3.6-10.7-6.3-2.7-2.7-4.5-6.1-5.5-10-1-3.9-1.6-8.3-1.6-13.2 0-4.5.3-9.2 1-14.3.6-5.1 1.4-10.5 2.3-16.3 1-6 2-11.7 3-17.1 1-5.4 2.3-10.4 3.9-15 1.5-4.6 3.5-8.7 5.8-12.4 2.3-3.7 5.3-6.8 8.8-9.4 3.5-2.6 7.7-4.6 12.6-6 4.9-1.4 10.8-2.1 17.5-2.1 8.7 0 17.5.3 26.3.8s17.4 1.5 25.8 2.8l5.4-36.7c-9.9-2.3-15.7-2.9-26-3.9s-21-1.5-32.2-1.5c-10.8 0-20.4.8-28.8 2.5-8.4 1.7-15.9 4.3-22.5 7.8-6.5 3.5-12.2 8-17.1 13.4-4.9 5.4-9.1 11.9-12.7 19.3-3.6 7.4-6.6 16-9.1 25.5-2.5 9.6-4.7 20.3-6.6 32-1.2 7.6-2.1 14.6-2.8 21.2v.4h-16l14.3-90.8c.3-2.2.5-4.2.5-6.1 0-3.3-.5-6.1-1.4-8.6-.9-2.4-2.2-4.4-3.8-6.1-1.6-1.6-3.6-2.8-5.8-3.6-2.3-.8-4.7-1.2-7.4-1.2-3 0-5.8.2-8.5.7-2.7.5-5.3 1.4-8.1 2.8-2.7 1.4-5.6 3.4-8.6 5.8-3 2.5-6.3 5.7-10 9.7l-71.5 77.8c-4.2 4.5-7.5 8.4-9.9 11.8-2.5 3.3-4.3 6.3-5.6 8.8-1.3 2.5-2.2 4.7-2.7 6.5-.5 1.8-.8 3.4-1.1 4.9-.3 2-.5 3.8-.5 5.5 0 2.7.4 5 1.3 7.2.8 2.1 2.2 3.9 4.1 5.4 1.9 1.5 4.4 2.7 7.6 3.5 3.1.8 7 1.2 11.5 1.2h57.4l-6.7 41.7h42.6l6.6-41.7h22c.6 3.5 1.2 7 2.2 10.1 2.4 7.7 6.3 14 11.7 19 5.4 5 12.5 8.7 21.2 11.1 8.7 2.4 19.4 3.6 32.1 3.6 6.5 0 12.7-.1 18.5-.3 5.9-.2 11.4-.8 16.5-1.7 5.1-.9 9.8-2.2 14.1-3.9 4.3-1.7 8.1-4.1 11.4-7.2 3.3-3 6.1-6.8 8.3-11.4 2.3-4.5 3.9-10.1 4.9-16.6l11.8-73.9h-71l-5.5 35.8zm-135 .2h-41.9l51-57.8-9.1 57.8z"/>
  </g>
</svg>
