<svg id="Layer_1" xmlns="http://www.w3.org/2000/svg" viewBox="0 0 842 224"><style>.st0,.st1{fill-rule:evenodd;clip-rule:evenodd;fill:#95bf0a}.st1{fill:#dd0380}</style><path class="st0" d="M66.6 67.3H138l-75.8 103v12.5h116.1v-22h-78l73.9-103.4.1-.1V44.5H66.6zM366.6 70h39.9c14.6-.2 26.8 6.3 25.7 26.2v86.7h25.9v-90c.2-35.2-23.3-48.3-48.7-48.3h-70.1V183h27.2V70zM468.8 114c0 39.6 35.8 71.9 79.7 71.9 16.6 0 32-4.6 44.7-12.5l.2-.1v-56.5h-26.1v42.8c-5.2 1.5-10.8 2.4-16.6 2.4-29.8 0-54.1-21.9-54.1-48.8s24.3-48.8 54.1-48.8c12.2 0 23.4 3.7 32.5 9.8l10.3-19.5c-12.9-8-28.4-12.7-45.1-12.7-43.9 0-79.6 32.4-79.6 72z"/><path class="st1" d="M679.1 44.5h-8.2l-50 79h42.8v16.8h15.4v-16.8h10.6v-16.2h-10.6V44.5zm-15.4 62.8l-15.8.1 15.8-26.9v26.8zM745.2 84.3v16.2h19.4v18.3c-2.9 2.2-6 3.8-9.3 4.8-3.3 1-6.7 1.6-10.2 1.6-4.6 0-8.8-.8-12.8-2.6-4-1.7-7.5-4-10.4-7-3-3-5.3-6.5-7-10.4-1.7-4-2.5-8.2-2.5-12.7s.9-8.7 2.5-12.7c1.7-4 4-7.5 7-10.4 3-3 6.5-5.3 10.4-7 4-1.7 8.2-2.6 12.8-2.6 4.2 0 8.3.8 12.2 2.4 3.9 1.6 7.4 3.8 10.5 6.7l11.6-11.6c-4.7-4.5-10-7.9-15.9-10.3-5.8-2.4-12-3.6-18.5-3.6-6.8 0-13.2 1.3-19.1 3.9-6 2.6-11.2 6.1-15.7 10.5s-8 9.6-10.6 15.6c-2.6 6-3.9 12.4-3.9 19.1 0 6.8 1.3 13.2 3.9 19.1 2.6 6 6.1 11.2 10.6 15.6s9.7 7.9 15.7 10.5c6 2.6 12.3 3.9 19.1 3.9 6.5 0 12.6-1.2 18.5-3.6 5.8-2.4 11.1-5.8 15.9-10.3l.2-.7V84.3h-34.4z"/><path class="st0" d="M327.1 114.1c0-39.7-32.4-72.1-72.1-72.1-39.7 0-72.1 32.4-72.1 72.1 0 37.7 29.2 68.8 66.1 71.8v-25.4c-23.1-2.9-40.9-22.6-40.9-46.4 0-25.9 21-46.8 46.8-46.8 25.9 0 46.8 21 46.8 46.8 0 23.8-17.8 43.5-40.9 46.4v25.4c37.1-3 66.3-34.1 66.3-71.8z"/></svg>